<?xml version="1.0" encoding="utf-8"?>
<!-- Generator: Adobe Illustrator 19.0.0, SVG Export Plug-In . SVG Version: 6.00 Build 0)  -->
<svg version="1.1" id="Layer_1" xmlns="http://www.w3.org/2000/svg" xmlns:xlink="http://www.w3.org/1999/xlink" x="0px" y="0px"
	 viewBox="0 0 283.5 283.5" style="enable-background:new 0 0 283.5 283.5;" xml:space="preserve">
<style type="text/css">
	.st0{fill:#F6931E;}
	.st1{fill:#BBBBBB;stroke:#231F20;stroke-width:1.2533;stroke-miterlimit:10;}
	.st2{fill:#FFF100;stroke:#FFF100;stroke-width:1.2533;stroke-miterlimit:10;}
</style>
<path id="XMLID_1_" class="st0" d="M251.6,19.8H31.9c-6.2,0-11.3,5-11.3,11.3v219.6c0,6.2,5,11.3,11.3,11.3h219.6
	c6.2,0,11.3-5,11.3-11.3V31.1C262.8,24.8,257.8,19.8,251.6,19.8z"/>
<path id="XMLID_5_" class="st1" d="M229.2,41.7h-175c-6.4,0-11.7,5.3-11.7,11.7v175c0,6.4,5.3,11.7,11.7,11.7h175
	c6.4,0,11.7-5.3,11.7-11.7v-175C240.9,46.9,235.7,41.7,229.2,41.7z"/>
<path id="XMLID_4_" class="st2" d="M229.2,41.7h-175c-6.4,0-11.7,5.3-11.7,11.7v175c0,6.4,5.3,11.7,11.7,11.7h175
	c6.4,0,11.7-5.3,11.7-11.7v-175C240.9,46.9,235.7,41.7,229.2,41.7z"/>
<g id="XMLID_161_">
	<path id="XMLID_174_" d="M3.5,89c1.8,2.2,4.1,3.4,6.9,3.4c2.6,0,5-1.1,7-3.2c1.1-1.1,1.8-2.3,2.4-3.5c0,0,0,0,0,0
		c0.5-1.2,0.7-2.4,0.7-3.7l-0.1-1.4c-0.1-1-0.4-2.2-0.9-3.6c-0.6-2.1-1.8-4.5-3.3-7.4c-1.5-2.8-2.6-5.2-3.3-7.1
		c0.3-0.2,0.7-0.4,1-0.7c0.3-0.3,0.6-0.5,0.8-0.8c0.4,1.2,1.2,2.5,2.4,4.3c1.1,1.6,1.7,2.5,1.8,2.7c0.2,0.4,0.4,0.8,0.6,1.2
		c0-1.2,0-2.5,0-3.7c-0.4-0.7-0.9-1.5-1.6-2.4c-1-1.4-1.7-2.6-2.1-3.6c1.2-1.9,1.7-4.1,2.2-6.2c0.1,0.3,0.2,0.6,0.4,0.9c0,0,0,0,0,0
		c-0.1-0.4-0.2-0.8-0.3-1.3c0.1-0.4,0.2-0.9,0.3-1.3c0,0,0,0,0,0c-0.1,0.3-0.2,0.6-0.4,0.9c-0.5-2.1-1.1-4.3-2.2-6.2
		c0.4-1,1.1-2.2,2.1-3.6c0.8-1.2,1.4-2.1,1.8-2.9c-0.1,2.1-0.1,4.3-0.1,6.6c0,1.2,0,2.5-0.1,3.7c0,1.3,0,2.5,0,3.8
		c0,2.6,0,5.2,0,7.7c0,1.3,0,2.5,0,3.8c0,1.2,0,2.5,0,3.7c0,0.1,0,0.2,0,0.3c0,0.6,0,1.3,0,1.9c0,0.6,0,1.3,0,1.9
		c0,1.3,0,2.5,0.1,3.7c0.5,1.4,0.8,2.6,0.9,3.6l0.1,1.4c0,1.3-0.2,2.6-0.7,3.8c0,1.6,0.1,3.1,0.2,4.6c0.1,1.9,0.2,3.7,0.2,5.3
		c0.1,1.6,0.2,3,0.2,4.1c0.1,1.1,0.1,2,0.2,2.6c0,0.6,0.1,0.9,0.1,0.9s0-0.3,0.1-0.9c0-0.6,0.1-1.5,0.2-2.6c0.1-1.1,0.1-2.5,0.2-4.1
		c0.1-1.6,0.2-3.4,0.2-5.3c0.1-1.9,0.1-4.1,0.2-6.3c0.1-2.2,0.1-4.6,0.2-7c0-1.2,0-2.5,0.1-3.7c0-0.6,0-1.3,0-1.9c0-0.6,0-1.3,0-1.9
		c0-2.6,0-5.2,0-7.7c0-2.6,0-5.2,0-7.7c0-1.3,0-2.5,0-3.8c0-1.3,0-2.5-0.1-3.7c-0.1-4.9-0.2-9.4-0.4-13.3c-0.1-1.9-0.2-3.7-0.2-5.3
		c-0.1-1.4-0.1-2.6-0.2-3.7c-0.1,0-0.2,0-0.3,0c0,0-0.1,0-0.1,0c0,0-0.1,0-0.1,0c-0.5,0-0.9-0.1-1.4-0.3c0,0.1,0,0.2,0,0.3
		c0,2.2-1.1,5.4-3.4,9.9c-1.9,3.6-3.1,6.1-3.6,7.5c-0.1,0.4-0.2,0.7-0.3,1.1c-1.1-0.4-2.2-0.5-3.4-0.2c0.4-1.9,1.4-4.2,2.9-6.8
		c0.9-1.5,1.5-2.6,1.9-3.3c0.6-1.2,1.1-2.3,1.4-3.3c0.4-1.2,0.5-2.4,0.5-3.4c0-2.3-0.7-4.4-2.4-7.1l-0.1,0.3
		c0.8,1.5,1.2,2.9,1.4,4.2c-0.9-1.4-2.9-1.4-3.1-0.5c-0.2,1,0.6,1.3,0.6,0.7c0.1-0.5-0.3-0.5-0.3-0.5c0-0.2,0.2-0.6,1.1-0.4
		c1,0.3,0.7,1.9,0,2.6c-0.7,0.6-1.6,1.7,0,2.9c0.5,0.4,0.7,0.7,0.9,1.1c0,0.1-0.1,0.2-0.1,0.3c-0.3-0.8-1.1-0.8-1.2-0.7
		c-0.1,0.1-0.3,0.7,0.1,1.2c0.2,0.2,0.3,0.5,0.4,0.7c0,0,0-0.1,0-0.1l0,0c0,0,0,0.1,0,0.2c-0.3,0.5-0.6,1.1-0.9,1.7
		c-0.4,0.2-0.8,0.2-0.8,0.2c0,1.3-0.7,2.5-0.7,2.5s0,0,0,0c-0.9,1.7-1.6,3.3-2.1,4.9c-0.3,1.1-0.5,2.1-0.6,3.1
		c-0.8,0.4-1.6,1-2.1,1.9c-0.6,0.9-1,2.2-0.6,3.7c0.2,0.9,0.9,1.9,1.9,2.6c0.8,0.5,2,0.8,3.3,0.1c1-0.5,2.1-2.9,0.6-4.1
		c-0.5-0.4-1.4-0.5-1.9-0.1C8,46,7.9,45.2,7.9,44.4c0-0.2,0-0.4,0-0.6c1.1-0.4,2.4-0.4,3.4-0.1c-0.1,0.7-0.2,1.5-0.2,2.3
		c0,1.9,0.8,3.9,1.6,5.1c-0.4-1.5-0.7-2.7-0.7-3.9c0-0.8,0.2-1.8,0.5-2.9c0.7,0.4,1.3,1,1.8,1.6c0,0.2-0.1,0.4-0.1,0.6
		c0,2.3,0.8,4.4,2,5.7l0.1-0.2c-0.5-1.1-0.8-1.6-0.8-1.7c-0.3-0.6-0.4-1.2-0.4-1.7c0-0.4,0.1-0.8,0.2-1.2c0.3,0.5,0.6,1.1,0.8,1.6
		c0.6,1.3,1.1,2.7,1.6,3.9c-0.5,1.3-1,2.6-1.6,3.9c-0.2,0.5-0.5,1.1-0.8,1.6c-0.1-0.4-0.2-0.8-0.2-1.2c0-0.5,0.1-1.1,0.4-1.7
		c0-0.1,0.3-0.7,0.8-1.7l-0.1-0.2c-1.2,1.3-2,3.4-2,5.7c0,0.2,0,0.4,0,0.6c-0.5,0.6-1.1,1.2-1.8,1.6c-0.3-1.1-0.5-2.1-0.5-2.9
		c0-1.2,0.3-2.5,0.7-3.9c-0.9,1.1-1.6,3.2-1.6,5.1c0,0.8,0.1,1.6,0.2,2.3c-1,0.3-2.3,0.3-3.4-0.1c0-0.2,0-0.4,0-0.6
		c0-0.7,0.1-1.6,0.4-2.4c0.5,0.4,1.4,0.3,1.9-0.1c1.5-1.2,0.4-3.6-0.6-4.1c-1.3-0.7-2.5-0.4-3.3,0.1c-1,0.6-1.7,1.6-1.9,2.6
		C4,58.7,4.4,60,5,61c0.5,0.9,1.3,1.5,2.1,1.9c0.1,0.9,0.3,2,0.6,3.1c0.4,1.6,1.1,3.2,2.1,4.9c0,0,0,0,0,0s0.7,1.2,0.7,2.5
		c0,0,0.4,0,0.8,0.2c0.3,0.6,0.6,1.2,0.9,1.7c0,0.1,0,0.2,0,0.2l0,0c0,0,0-0.1,0-0.1c-0.1,0.3-0.2,0.5-0.4,0.7
		c-0.5,0.5-0.2,1-0.1,1.2c0.1,0.2,0.9,0.2,1.2-0.7c0,0.1,0.1,0.2,0.1,0.3c-0.1,0.4-0.4,0.8-0.9,1.1c-1.6,1.2-0.7,2.3,0,2.9
		c0.7,0.6,1.1,2.3,0,2.6c-0.9,0.2-1.1-0.2-1.1-0.4c0,0,0.4,0,0.3-0.5c-0.1-0.5-0.9-0.2-0.6,0.7c0.2,0.9,2.2,0.9,3.1-0.5
		c-0.2,1.3-0.7,2.7-1.4,4.2l0.1,0.3c1.7-2.6,2.4-4.8,2.4-7.1c0-1.1-0.2-2.2-0.5-3.4c-0.3-1-0.8-2.1-1.4-3.3c-0.4-0.7-1-1.8-1.9-3.3
		c-1.5-2.7-2.5-5-2.9-6.9c1.2,0.3,2.4,0.2,3.4-0.1c0.1,0.4,0.2,0.8,0.4,1.2c0.5,1.4,1.7,3.9,3.6,7.5c2.4,4.5,3.4,7.7,3.4,9.9
		c0,2.9-0.9,5.3-2.7,7.3c-0.3,0.4-0.7,0.7-1.1,1c-0.1,0-0.1,0-0.2,0c-0.5-0.1-1-0.4-1.5-0.4c-0.4,0-0.8,0.1-1.1,0
		c0,0.6,0.2,1.3,0.7,1.6c0,0-0.1,0-0.1,0c-0.5-0.2-1-0.5-1.4-0.9c-0.2-0.1-1.3-1.1-1.5-0.8c-0.1-1-0.5-2.1-1.3-2.7
		C8.7,86.7,8,86.5,8,86.4c0-0.3,0.6,0.1,0.4-0.5c-0.1-0.4-0.8-0.3-1.1-0.2c-0.6,0.3-1,1-1,1.6c-0.1,1.1,0.1,2.4,0.9,3.2
		C6.2,90.1,6,88.8,6,87.9c0-0.3,0.2-2.8-0.3-2.7c0.8-0.4,1.3-1.3,1.3-2.2c0-0.8-0.4-1.5-0.3-2.3c0-0.5,0.5-1.6,1.2-1.3
		c0.5,0.2,0.3,0.9,0,1.2c0.2,0.5,0.5,0.2,0.7-0.1c0.1-0.4,0-1.1-0.3-1.5c-0.7-0.9-2.1-1.1-3.2-0.9c-1,0.2-1.9,0.8-2.6,1.6l-0.1,0
		c0,0-2.2,3-0.1,7.4c0,0,0,0.1,0.1,0.1c0,0,0,0,0,0c0,0,0,0.1,0,0.1C2.5,87.6,2.8,88.2,3.5,89z M8.1,47.5c0.1,0.2,0.2,0.4,0.3,0.5
		C8.2,48,8,47.7,8.1,47.5z M7.9,47.2c-0.3,0.5,0,1.3,0.6,1.3c0.2,0,0.2-0.2,0.2-0.3c-0.1-0.3-0.2-0.6-0.3-0.9
		c0.1-0.1,0.3-0.1,0.4-0.2c0.6-0.1,1.2,0.4,1.4,0.9c0.3,0.9-0.2,1.8-1,2.2c-0.4,0.2-1,0.3-1.4,0.2c-0.5-0.1-1.2-0.4-1.6-0.9
		c-1-1.1-1-2.7-0.5-3.7c0.4-0.8,0.9-1.3,1.5-1.7C7.2,45.1,7.5,46.2,7.9,47.2z M14.7,44.8c-0.3-0.3-0.5-0.6-0.8-0.8
		c-0.3-0.2-0.6-0.5-0.9-0.7c0.7-1.9,1.8-4.3,3.3-7.1c2.2-4,3.5-7.3,4-9.7c0,0.4,0,0.9-0.1,1.4c-0.1,1.3-0.1,2.8-0.2,4.4
		c0,0,0,0,0-0.1l0,0.2c0,0.3,0,0.5,0,0.8c0,0.8-0.1,1.5-0.1,2.3c-0.2,0.8-0.5,1.6-1,2.3c-0.1,0.2-0.7,1.1-1.8,2.7
		C15.9,42.2,15.1,43.6,14.7,44.8z M8.1,58.2C8,58,8.2,57.7,8.4,57.7C8.3,57.8,8.2,58,8.1,58.2z M7.1,61.5c-0.6-0.4-1.2-0.9-1.5-1.7
		c-0.5-1-0.5-2.6,0.5-3.7c0.4-0.4,1.1-0.8,1.6-0.9c0.4-0.1,1,0,1.4,0.2c0.8,0.4,1.4,1.3,1,2.2c-0.2,0.4-0.8,1-1.4,0.9
		c-0.2,0-0.3-0.1-0.4-0.1c0.1-0.3,0.2-0.6,0.3-0.9c0,0,0,0,0,0l0,0l0,0c0-0.1,0-0.3-0.2-0.3c-0.5,0-0.8,0.8-0.6,1.3
		C7.5,59.5,7.2,60.6,7.1,61.5z"/>
	<path id="XMLID_173_" d="M2.3,18.6C0.2,22.9,2.5,26,2.5,26l0.1,0c0.6,0.9,1.5,1.4,2.6,1.6c1,0.2,2.4,0.1,3.2-0.9
		c0.3-0.3,0.4-1,0.3-1.5c-0.1-0.4-0.5-0.6-0.7-0.1c0.3,0.3,0.5,1,0,1.2c-0.7,0.3-1.2-0.7-1.2-1.3c-0.1-0.8,0.3-1.5,0.3-2.3
		c0-0.9-0.5-1.8-1.3-2.2C6.2,20.7,6,18.2,6,17.9c0-0.9,0.3-2.2,1.1-2.8c-0.7,0.8-1,2.1-0.9,3.2c0.1,0.6,0.5,1.4,1,1.6
		c0.3,0.2,0.9,0.2,1.1-0.2c0.2-0.5-0.4-0.2-0.4-0.5c0-0.1,0.7-0.3,0.8-0.4c0.8-0.6,1.2-1.7,1.3-2.7c0.2,0.4,1.3-0.6,1.5-0.8
		c0.4-0.3,0.9-0.7,1.4-0.9c0,0,0.1,0,0.1,0c-0.6,0.3-0.7,1-0.7,1.6c0.4-0.1,0.7,0,1.1,0c0.5,0,1-0.3,1.5-0.4c0,0,0,0,0,0
		c0.3,0.4,0.7,0.8,1.1,1.2c0.3,0.3,0.7,0.6,1,0.9c0,0,0,0,0,0c0,0,0,0,0,0c0.2-0.3,0.4-0.6,0.7-0.8c0,0,0,0,0,0c0,0-0.1-0.1-0.1-0.1
		c-0.1-0.2-0.3-0.3-0.5-0.5c-0.6-0.6-1.3-1.2-1.9-1.6c0,0,0-0.1-0.1-0.1c0-0.1,0-0.1,0-0.2c0.1-0.5,0.4-1,0.4-1.5
		c0-0.4-0.1-0.8,0-1.1c-0.6,0-1.3,0.2-1.6,0.7c0,0,0-0.1,0-0.1c0.2-0.5,0.5-1,0.9-1.4c0.1-0.2,1.1-1.3,0.8-1.5
		c1-0.1,2.1-0.5,2.7-1.3c0.1-0.1,0.3-0.8,0.4-0.8c0.3,0-0.1,0.6,0.5,0.4c0.4-0.1,0.3-0.8,0.2-1.1c-0.3-0.6-1-1-1.6-1
		c-1.1-0.1-2.4,0.1-3.2,0.9c0.5-0.9,1.8-1.1,2.8-1.1c0.3,0,2.8,0.2,2.7-0.3c0.4,0.8,1.3,1.3,2.2,1.3c0.8,0,1.5-0.3,2.3-0.3
		c0.5,0,1.6,0.5,1.3,1.2c-0.2,0.5-0.9,0.3-1.2,0c-0.5,0.2-0.2,0.5,0.1,0.7c0.4,0.1,1.1,0,1.5-0.3c0.9-0.7,1.1-2.1,0.9-3.2
		c-0.2-1-0.8-1.9-1.6-2.6l0-0.1c0,0-3-2.2-7.4-0.1c0,0-0.1,0-0.1,0.1c0,0,0,0,0,0c0,0-0.1,0-0.1,0c-0.3,0.1-0.8,0.4-1.7,1
		c-2.2,1.8-3.4,4.1-3.4,6.9c0,1.4,0.3,2.7,0.9,4c-1.1-0.5-2.2-0.7-3.5-0.7c-2.9,0-5.2,1.1-6.9,3.4c-0.6,0.8-1,1.4-1,1.7
		c0,0,0,0.1,0,0.1c0,0,0,0,0,0C2.4,18.5,2.4,18.5,2.3,18.6z"/>
	<path id="XMLID_164_" d="M28.3,20.6c1.6,0.1,3.4,0.2,5.3,0.2c3.9,0.1,8.5,0.3,13.4,0.4c1.2,0,2.5,0,3.7,0.1c1.3,0,2.5,0,3.8,0
		c2.6,0,5.2,0,7.8,0c2.6,0,5.2,0,7.8,0c0.6,0,1.3,0,1.9,0c0.6,0,1.3,0,1.9,0c1.3,0,2.5,0,3.7-0.1c2.4,0,4.8-0.1,7.1-0.2
		c2.2-0.1,4.4-0.1,6.3-0.2c2-0.1,3.8-0.2,5.3-0.2c1.6-0.1,3-0.2,4.1-0.2c1.1-0.1,2-0.1,2.7-0.2c0.6,0,0.9-0.1,0.9-0.1
		s-0.3,0-0.9-0.1c-0.6,0-1.5-0.1-2.7-0.2c-1.1-0.1-2.5-0.1-4.1-0.2c-1.6-0.1-3.4-0.2-5.3-0.2c-1.7-0.1-3.6-0.1-5.5-0.2
		c1.1-0.5,2.2-1.3,3.2-2.2c2.1-2,3.2-4.4,3.2-7c0-2.9-1.1-5.2-3.4-6.9c-0.8-0.6-1.4-1-1.7-1c0,0-0.1,0-0.1,0c0,0,0,0,0,0
		c0,0-0.1,0-0.1-0.1c-4.3-2.1-7.4,0.1-7.4,0.1l0,0.1c-0.9,0.6-1.4,1.5-1.6,2.6c-0.2,1-0.1,2.4,0.9,3.2c0.3,0.3,1,0.4,1.5,0.3
		c0.4-0.1,0.6-0.5,0.1-0.7c-0.3,0.3-1,0.5-1.2,0c-0.3-0.7,0.7-1.2,1.3-1.2c0.8-0.1,1.5,0.3,2.3,0.3c0.9,0,1.8-0.4,2.2-1.3
		c-0.1,0.5,2.4,0.3,2.7,0.3c0.9,0,2.2,0.3,2.8,1.1c-0.8-0.7-2.1-1-3.2-0.9c-0.6,0.1-1.4,0.5-1.6,1c-0.2,0.3-0.2,0.9,0.2,1.1
		c0.5,0.2,0.2-0.4,0.5-0.4c0.1,0,0.3,0.7,0.4,0.8c0.6,0.8,1.7,1.2,2.7,1.3c-0.4,0.2,0.6,1.3,0.8,1.5c0.3,0.4,0.7,0.9,0.9,1.4
		c0,0,0,0.1,0,0.1c-0.3-0.6-1-0.7-1.6-0.7c0.1,0.4,0,0.7,0,1.1c0,0.5,0.3,1,0.4,1.5c0,0.1,0,0.1,0,0.2c-0.3,0.4-0.6,0.7-1,1.1
		c-1.9,1.8-4.3,2.7-7.3,2.7c-2.2,0-5.4-1.1-9.9-3.4c-3.6-1.9-6.1-3.1-7.5-3.6c-0.4-0.1-0.8-0.3-1.2-0.4c0.4-1.1,0.4-2.2,0.1-3.4
		c1.9,0.4,4.2,1.4,6.9,2.9c1.5,0.9,2.6,1.5,3.3,1.9c1.2,0.6,2.3,1.1,3.3,1.4c1.2,0.4,2.4,0.5,3.4,0.5c2.3,0,4.4-0.7,7.1-2.4L86.6,12
		c-1.5,0.8-2.9,1.2-4.2,1.4c1.4-0.9,1.4-2.9,0.5-3.1c-1-0.2-1.3,0.6-0.7,0.6c0.5,0.1,0.5-0.3,0.5-0.3c0.2,0,0.6,0.2,0.4,1.1
		c-0.3,1-1.9,0.7-2.6,0c-0.6-0.7-1.7-1.6-2.9,0c-0.4,0.5-0.7,0.7-1.1,0.9c-0.1,0-0.2-0.1-0.3-0.1c0.8-0.3,0.8-1.1,0.7-1.2
		c-0.1-0.1-0.7-0.2-1.2,0.3C75.5,11.6,75.3,12,75,12c0,0,0.1,0,0.1,0l0-0.1c0,0-0.1,0-0.2,0c-0.5-0.3-1.1-0.6-1.7-0.9
		C73,10.5,73,10.1,73,10.1c-1.3,0-2.5-0.7-2.5-0.7s0,0,0,0c-1.7-0.9-3.3-1.6-4.9-2.1c-1.1-0.3-2.2-0.5-3.1-0.6
		c-0.4-0.8-1-1.6-1.9-2.1c-0.9-0.6-2.2-1-3.7-0.6C56,4.2,55,4.9,54.4,5.9c-0.5,0.8-0.8,2-0.1,3.3c0.5,1,2.9,2.1,4.1,0.6
		c0.4-0.5,0.5-1.4,0.1-1.9c0.8-0.2,1.7-0.4,2.4-0.4c0.2,0,0.4,0,0.6,0C62,8.7,62,10,61.7,11c-0.7-0.1-1.5-0.2-2.3-0.2
		c-1.9,0-3.9,0.8-5.1,1.6c1.5-0.4,2.7-0.7,3.9-0.7c0.8,0,1.7,0.2,2.9,0.5c-0.4,0.7-1,1.3-1.6,1.8c-0.2,0-0.4,0-0.6,0
		c-2.3,0-4.4,0.8-5.7,2l0.2,0.1c1.1-0.5,1.6-0.8,1.7-0.8c0.6-0.3,1.2-0.4,1.7-0.4c0.4,0,0.8,0.1,1.2,0.2c-0.5,0.3-1.1,0.6-1.6,0.8
		c-1.3,0.6-2.7,1.1-3.9,1.6c-1.3-0.5-2.6-1-3.9-1.6c-0.5-0.2-1.1-0.5-1.6-0.8c0.4-0.1,0.9-0.2,1.2-0.2c0.5,0,1.1,0.1,1.7,0.4
		c0.1,0,0.7,0.3,1.7,0.8l0.2-0.1c-1.3-1.2-3.4-2-5.7-2c-0.2,0-0.4,0-0.6,0.1c-0.6-0.5-1.2-1.1-1.6-1.8c1.2-0.3,2.1-0.5,2.9-0.5
		c1.2,0,2.5,0.3,3.9,0.7c-1.1-0.9-3.2-1.6-5.1-1.6c-0.8,0-1.6,0.1-2.3,0.2C43,10,43,8.7,43.4,7.6c0.2,0,0.4,0,0.6,0
		c0.7,0,1.6,0.1,2.4,0.4c-0.4,0.5-0.3,1.4,0.1,1.9c1.2,1.5,3.6,0.4,4.1-0.6c0.7-1.3,0.4-2.5-0.1-3.3C50,4.9,48.9,4.2,48,4
		c-1.4-0.4-2.7,0-3.7,0.6c-0.9,0.6-1.5,1.3-1.9,2.1c-0.9,0.1-2,0.3-3.1,0.6c-1.6,0.4-3.2,1.1-4.9,2.1c0,0,0,0,0,0s-1.2,0.7-2.5,0.7
		c0,0,0,0.4-0.2,0.8c-0.6,0.3-1.2,0.6-1.7,0.9c-0.1,0-0.2,0.1-0.2,0.1l0,0.1c0,0,0.1,0,0.1,0c-0.3,0-0.5-0.4-0.7-0.6
		c-0.5-0.5-1-0.3-1.2-0.2c-0.2,0.1-0.2,0.9,0.7,1.2c-0.1,0-0.2,0.1-0.3,0.1c-0.4-0.1-0.8-0.4-1.1-0.9c-1.2-1.6-2.3-0.7-2.9,0
		c-0.6,0.7-2.3,1.1-2.6,0c-0.2-0.9,0.2-1.1,0.4-1.1c0,0,0,0.4,0.5,0.3c0.5-0.1,0.2-0.9-0.7-0.6c-0.9,0.2-0.9,2.2,0.5,3.1
		c-1.3-0.2-2.7-0.7-4.2-1.4L18.1,12c2.6,1.7,4.8,2.4,7.1,2.4c1.1,0,2.2-0.2,3.4-0.5c1-0.3,2.1-0.8,3.3-1.4c0.7-0.4,1.8-1,3.3-1.9
		c2.7-1.5,4.9-2.5,6.8-2.9c-0.3,1.2-0.2,2.4,0.2,3.4c-0.4,0.1-0.8,0.2-1.1,0.3c-1.4,0.5-3.9,1.7-7.5,3.6c-4.1,2.1-7.1,3.2-9.3,3.4
		c0.2,0.4,0.3,0.8,0.3,1.3c0,0.1,0,0.1,0,0.2c0,0,0,0.1,0,0.1c0,0.1,0,0.2,0,0.3C25.6,20.4,26.9,20.5,28.3,20.6z M58.2,7.6
		c-0.5-0.3-1.3,0-1.3,0.6c0,0.2,0.2,0.2,0.3,0.2l0,0h0c0,0,0,0,0,0c0.3-0.1,0.6-0.2,0.9-0.3c0.1,0.1,0.1,0.3,0.2,0.4
		c0.1,0.6-0.4,1.2-0.9,1.4c-0.9,0.3-1.8-0.2-2.2-1c-0.2-0.4-0.3-1-0.2-1.4c0.1-0.5,0.4-1.2,0.9-1.6c1.1-1,2.7-1,3.7-0.5
		c0.8,0.4,1.3,0.9,1.7,1.5C60.2,6.9,59.2,7.1,58.2,7.6z M57.8,7.7c-0.2,0.1-0.3,0.2-0.5,0.3C57.4,7.8,57.6,7.7,57.8,7.7z M45.5,5.2
		c1-0.5,2.6-0.5,3.7,0.5c0.4,0.4,0.8,1.1,0.9,1.6c0.1,0.4,0,1-0.2,1.4c-0.4,0.8-1.3,1.4-2.2,1c-0.4-0.2-1-0.8-0.9-1.4
		c0-0.2,0.1-0.3,0.2-0.4c0.3,0.1,0.6,0.2,0.9,0.3c0.1,0.1,0.3,0,0.3-0.2c0-0.5-0.8-0.8-1.3-0.6c-1-0.4-2-0.7-3-0.8
		C44.2,6.1,44.7,5.6,45.5,5.2z M47.1,7.7c0.2-0.1,0.5,0.1,0.5,0.3C47.5,7.9,47.3,7.8,47.1,7.7z M61.4,13.5c0.3-0.3,0.5-0.6,0.7-0.9
		c1.9,0.7,4.3,1.8,7.1,3.3c2.7,1.5,5,2.5,7,3.2c-0.7,0-1.5,0-2.2,0c-0.6,0-1.3,0-1.9,0c-0.6,0-1.3,0-1.9,0c-0.6,0-1.1,0-1.7,0
		c-0.3-0.1-0.6-0.3-0.9-0.5c-0.2-0.1-1.1-0.7-2.7-1.8c-1.8-1.2-3.2-2-4.3-2.4C60.9,14.1,61.1,13.8,61.4,13.5z M45.9,15.4
		c1.9,1.1,4.1,1.7,6.2,2.2c-0.3,0.1-0.6,0.2-0.9,0.4c0,0,0,0,0,0c0.4-0.1,0.8-0.2,1.3-0.3c0.4,0.1,0.9,0.2,1.3,0.3c0,0,0,0,0,0
		c-0.3-0.1-0.6-0.2-0.9-0.4c2.1-0.5,4.3-1.1,6.2-2.2c1,0.4,2.2,1.1,3.6,2.1c0.9,0.6,1.6,1.1,2.2,1.5c-0.8,0-1.7,0-2.5,0
		c-2.6,0-5.2,0-7.8,0c-1.3,0-2.6,0-3.8,0c-1.3,0-2.5,0-3.7,0.1c-2.6,0-5.1,0.1-7.5,0.2c0.7-0.4,1.6-1,2.7-1.8
		C43.7,16.5,44.9,15.8,45.9,15.4z M35.8,15.8c2.8-1.5,5.1-2.6,7.1-3.3c0.2,0.3,0.4,0.6,0.7,0.9c0.3,0.3,0.5,0.6,0.8,0.8
		c-1.2,0.4-2.5,1.2-4.3,2.4c-1.6,1.1-2.5,1.7-2.7,1.8c-0.7,0.4-1.4,0.7-2.1,0.9c-0.6,0-1.1,0-1.7,0.1c-2,0.1-3.8,0.2-5.3,0.2
		c-0.7,0-1.3,0.1-1.9,0.1C28.8,19.2,31.9,17.9,35.8,15.8z"/>
	<path id="XMLID_163_" d="M23,20.3c0-0.1,0-0.1,0-0.2c0,0,0,0,0,0c0,0,0-0.1,0-0.1c0-0.5-0.2-1-0.6-1.4c-0.4-0.5-1.1-0.9-1.8-0.9
		c-0.3,0-0.7,0.1-1,0.2c-0.3,0.1-0.5,0.3-0.7,0.5c-0.1,0.1-0.2,0.3-0.3,0.4c-0.2,0.3-0.3,0.6-0.3,0.9c0,0.1,0,0.2,0,0.3
		c0,0.6,0.2,0.9,0.6,1.3c0.4,0.5,1,0.5,1.6,0.5c0,0,0,0,0,0c0.1,0,0.1,0.3,0.2,0.3c0.1,0,0.1,0.1,0.2,0.1C22,22.3,22.9,21.5,23,20.3
		z"/>
	<circle id="XMLID_162_" cx="9" cy="9.3" r="2.4"/>
</g>
<g id="XMLID_158_">
	<path id="XMLID_211_" d="M195.6,280.5C195.6,280.5,195.6,280.5,195.6,280.5C195.6,280.5,195.6,280.5,195.6,280.5
		c0.1,0.1,0.1,0.1,0.2,0.1c4.3,2.1,7.4-0.1,7.4-0.1l0-0.1c0.9-0.6,1.4-1.5,1.6-2.6c0.2-1,0.1-2.4-0.9-3.2c-0.3-0.3-1-0.4-1.5-0.3
		c-0.4,0.1-0.6,0.5-0.1,0.7c0.3-0.3,1-0.5,1.2,0c0.3,0.7-0.7,1.2-1.3,1.2c-0.8,0.1-1.5-0.3-2.3-0.3c-0.9,0-1.8,0.5-2.2,1.3
		c0.1-0.5-2.4-0.3-2.7-0.3c-0.9,0-2.2-0.3-2.8-1.1c0.8,0.7,2.1,1,3.2,0.9c0.6-0.1,1.4-0.5,1.6-1c0.2-0.3,0.2-0.9-0.2-1.1
		c-0.5-0.2-0.2,0.4-0.5,0.4c-0.1,0-0.3-0.7-0.4-0.8c-0.6-0.8-1.7-1.2-2.7-1.3c0.4-0.2-0.6-1.3-0.8-1.5c-0.3-0.4-0.7-0.9-0.9-1.4
		c0,0,0-0.1,0-0.1c0.3,0.6,1,0.7,1.6,0.7c-0.1-0.4,0-0.7,0-1.1c0-0.5-0.3-1-0.4-1.5c0-0.1,0-0.1,0-0.2c0.3-0.4,0.6-0.7,1-1.1
		c1.9-1.8,4.3-2.7,7.3-2.7c2.2,0,5.4,1.1,9.9,3.4c3.6,1.9,6.1,3.1,7.5,3.6c0.4,0.1,0.8,0.3,1.2,0.4c-0.4,1.1-0.4,2.2-0.1,3.4
		c-1.9-0.4-4.2-1.4-6.9-2.9c-1.5-0.9-2.6-1.5-3.3-1.9c-1.2-0.6-2.3-1.1-3.3-1.4c-1.2-0.4-2.4-0.5-3.4-0.5c-2.3,0-4.4,0.7-7.1,2.4
		l0.3,0.1c1.5-0.8,2.9-1.2,4.2-1.4c-1.4,0.9-1.4,2.9-0.5,3.1c1,0.2,1.3-0.6,0.7-0.6c-0.5-0.1-0.5,0.3-0.5,0.3
		c-0.2,0-0.6-0.2-0.4-1.1c0.3-1,1.9-0.7,2.6,0c0.6,0.7,1.7,1.6,2.9,0c0.4-0.5,0.7-0.7,1.1-0.9c0.1,0,0.2,0.1,0.3,0.1
		c-0.8,0.3-0.8,1.1-0.7,1.2c0.1,0.1,0.7,0.3,1.2-0.1c0.2-0.2,0.5-0.3,0.7-0.4c0,0-0.1,0-0.1,0l0,0c0,0,0.1,0,0.2,0
		c0.5,0.3,1.1,0.6,1.7,0.9c0.2,0.4,0.2,0.8,0.2,0.8c1.3,0,2.5,0.7,2.5,0.7s0,0,0,0c1.7,0.9,3.3,1.6,4.9,2.1c1.1,0.3,2.2,0.5,3.1,0.6
		c0.4,0.8,1,1.6,1.9,2.1c0.9,0.6,2.2,1,3.7,0.6c0.9-0.2,1.9-0.9,2.6-1.9c0.5-0.8,0.8-2,0.1-3.3c-0.5-1-2.9-2.1-4.1-0.6
		c-0.4,0.5-0.5,1.4-0.1,1.9c-0.8,0.2-1.7,0.4-2.4,0.4c-0.2,0-0.4,0-0.6,0c-0.4-1.1-0.4-2.4-0.1-3.4c0.7,0.1,1.5,0.2,2.3,0.2
		c1.9,0,3.9-0.8,5.1-1.6c-1.5,0.4-2.7,0.7-3.9,0.7c-0.8,0-1.7-0.2-2.9-0.5c0.4-0.7,1-1.3,1.6-1.8c0.2,0,0.4,0,0.6,0
		c2.3,0,4.4-0.8,5.7-2l-0.2-0.1c-1.1,0.5-1.6,0.8-1.7,0.8c-0.6,0.3-1.2,0.4-1.7,0.4c-0.4,0-0.8-0.1-1.2-0.2c0.5-0.3,1.1-0.6,1.6-0.8
		c1.3-0.6,2.7-1.1,3.9-1.6c1.3,0.5,2.6,1,3.9,1.6c0.5,0.2,1.1,0.5,1.6,0.8c-0.4,0.1-0.9,0.2-1.2,0.2c-0.5,0-1.1-0.1-1.7-0.4
		c-0.1,0-0.7-0.3-1.7-0.8l-0.2,0.1c1.3,1.2,3.4,2,5.7,2c0.2,0,0.4,0,0.6-0.1c0.6,0.5,1.2,1.1,1.6,1.8c-1.2,0.4-2.1,0.5-2.9,0.5
		c-1.2,0-2.5-0.3-3.9-0.7c1.1,0.9,3.2,1.6,5.1,1.6c0.8,0,1.6-0.1,2.3-0.2c0.3,1,0.3,2.3-0.1,3.4c-0.2,0-0.4,0-0.6,0
		c-0.7,0-1.6-0.1-2.4-0.3c0.4-0.5,0.3-1.4-0.1-1.9c-1.2-1.5-3.6-0.4-4.1,0.6c-0.7,1.3-0.4,2.5,0.1,3.3c0.6,1,1.6,1.7,2.6,1.9
		c1.4,0.4,2.7,0,3.7-0.6c0.9-0.5,1.5-1.3,1.9-2.1c0.9-0.1,2-0.3,3.1-0.6c1.6-0.4,3.2-1.1,4.9-2.1c0,0,0,0,0,0s1.2-0.7,2.5-0.7
		c0,0,0-0.4,0.2-0.8c0.6-0.3,1.2-0.6,1.7-0.9c0.1,0,0.2,0,0.2,0l0,0c0,0-0.1,0-0.1,0c0.3,0.1,0.5,0.2,0.7,0.4c0.5,0.5,1,0.2,1.2,0.1
		c0.2-0.1,0.2-0.9-0.7-1.2c0.1,0,0.2-0.1,0.3-0.1c0.4,0.1,0.8,0.4,1.1,0.9c1.2,1.6,2.3,0.7,2.9,0s2.3-1.1,2.6,0
		c0.2,0.9-0.2,1.1-0.4,1.1c0,0,0-0.4-0.5-0.3c-0.5,0.1-0.2,0.9,0.7,0.6c0.9-0.2,0.9-2.2-0.5-3.1c1.3,0.2,2.7,0.7,4.2,1.4l0.3-0.1
		c-2.6-1.7-4.8-2.4-7.1-2.4c-1.1,0-2.2,0.2-3.4,0.5c-1,0.3-2.1,0.8-3.3,1.4c-0.7,0.4-1.8,1-3.3,1.9c-2.7,1.5-4.9,2.5-6.8,2.9
		c0.3-1.2,0.2-2.4-0.2-3.4c0.4-0.1,0.8-0.2,1.1-0.3c1.4-0.5,3.9-1.7,7.5-3.6c4.5-2.4,7.7-3.4,9.9-3.4c0.1,0,0.2,0,0.3,0
		c-0.2-0.4-0.3-0.9-0.3-1.4c0,0,0-0.1,0-0.1c0,0,0-0.1,0-0.1c0-0.1,0-0.2,0-0.3c-1.1-0.1-2.3-0.1-3.7-0.2c-1.6-0.1-3.4-0.2-5.3-0.2
		c-3.9-0.1-8.4-0.3-13.3-0.4c-1.2,0-2.5,0-3.7-0.1c-1.3,0-2.5,0-3.8,0c-2.6,0-5.2,0-7.7,0c-2.6,0-5.2,0-7.7,0c-0.6,0-1.3,0-1.9,0
		c-0.6,0-1.3,0-1.9,0c-1.3,0-2.5,0-3.7,0.1c-2.4,0-4.8,0.1-7,0.2c-2.2,0.1-4.3,0.1-6.3,0.2c-1.9,0.1-3.7,0.2-5.3,0.2
		c-1.6,0.1-3,0.2-4.1,0.2c-1.1,0.1-2,0.1-2.6,0.2c-0.6,0-0.9,0.1-0.9,0.1s0.3,0,0.9,0.1c0.6,0,1.5,0.1,2.6,0.2
		c1.1,0.1,2.5,0.1,4.1,0.2c1.6,0.1,3.4,0.2,5.3,0.2c1.4,0.1,3,0.1,4.6,0.2c1.2-0.5,2.4-0.7,3.8-0.7l1.4,0.1c1,0.1,2.2,0.4,3.6,0.9
		c1.2,0,2.5,0,3.7,0.1c0.6,0,1.3,0,1.9,0c0.6,0,1.3,0,1.9,0c0.1,0,0.2,0,0.3,0c1.2,0,2.5,0,3.7,0c1.3,0,2.5,0,3.8,0
		c2.6,0,5.2,0,7.7,0c1.3,0,2.5,0,3.8,0c1.3,0,2.5,0,3.7-0.1c2.3,0,4.5-0.1,6.6-0.1c-0.7,0.4-1.7,1-2.9,1.8c-1.4,1-2.6,1.7-3.6,2.1
		c-1.9-1.1-4.1-1.7-6.2-2.2c0.3-0.1,0.6-0.2,0.9-0.4c0,0,0,0,0,0c-0.4,0.1-0.8,0.2-1.3,0.3c-0.4-0.1-0.9-0.2-1.3-0.3c0,0,0,0,0,0
		c0.3,0.1,0.6,0.2,0.9,0.4c-2.1,0.5-4.3,1.1-6.2,2.2c-1-0.4-2.2-1.1-3.6-2.1c-0.9-0.6-1.7-1.2-2.4-1.6c-1.2,0-2.5,0-3.7,0
		c0.4,0.2,0.8,0.4,1.2,0.6c0.2,0.1,1.1,0.7,2.7,1.8c1.8,1.2,3.2,2,4.3,2.4c-0.3,0.3-0.6,0.5-0.8,0.8c-0.3,0.3-0.5,0.6-0.7,1
		c-1.9-0.7-4.3-1.7-7.1-3.3c-2.8-1.5-5.3-2.7-7.4-3.3c-1.4-0.5-2.6-0.8-3.6-0.9l-1.4-0.1c-1.3,0-2.5,0.2-3.7,0.7c0,0,0,0,0,0
		c-1.3,0.5-2.4,1.3-3.5,2.4c-2.1,2-3.2,4.4-3.2,7c0,2.9,1.1,5.2,3.4,6.9C194.7,280.1,195.3,280.4,195.6,280.5z M234.9,274.6
		c0.2,0.1,0.3,0.2,0.5,0.3C235.2,274.9,235,274.7,234.9,274.6z M238.8,275.8c-0.4,0.6-0.9,1.2-1.7,1.5c-1,0.5-2.6,0.5-3.7-0.5
		c-0.4-0.4-0.8-1.1-0.9-1.6c-0.1-0.4,0-1,0.2-1.4c0.4-0.8,1.3-1.4,2.2-1c0.4,0.2,1,0.8,0.9,1.4c0,0.2-0.1,0.3-0.2,0.4
		c-0.3-0.1-0.6-0.2-0.9-0.3c-0.1-0.1-0.3,0-0.3,0.2c0,0.5,0.8,0.8,1.3,0.6C236.8,275.4,237.8,275.7,238.8,275.8z M242.5,265.8
		c1.6-1.1,2.5-1.7,2.7-1.8c0.8-0.5,1.6-0.8,2.3-1c0.8,0,1.6-0.1,2.3-0.1c0.3,0,0.5,0,0.8,0l0.2,0c0,0,0,0-0.1,0
		c1.6-0.1,3-0.1,4.4-0.2c0.5,0,0.9,0,1.4-0.1c-2.4,0.5-5.7,1.8-9.7,4c-2.8,1.5-5.1,2.6-7.1,3.3c-0.2-0.3-0.4-0.6-0.7-0.9
		c-0.3-0.3-0.5-0.6-0.8-0.8C239.3,267.8,240.7,267.1,242.5,265.8z M225.3,274.6c-0.1,0.1-0.3,0.3-0.5,0.3
		C224.9,274.8,225.1,274.7,225.3,274.6z M224.4,275c0.5,0.3,1.3-0.1,1.3-0.6c0-0.2-0.2-0.2-0.3-0.2l0,0l0,0c0,0,0,0,0,0
		c-0.3,0.1-0.6,0.2-0.9,0.3c-0.1-0.1-0.1-0.3-0.1-0.4c-0.1-0.6,0.4-1.2,0.9-1.4c0.9-0.3,1.8,0.2,2.2,1c0.2,0.4,0.3,1,0.2,1.4
		c-0.1,0.5-0.4,1.2-0.9,1.6c-1.1,1-2.7,1-3.7,0.5c-0.8-0.4-1.3-0.9-1.7-1.5C222.3,275.7,223.4,275.4,224.4,275z"/>
	<path id="XMLID_210_" d="M264.4,280.6c-4.3,2.1-7.4-0.1-7.4-0.1l0-0.1c-0.9-0.6-1.4-1.5-1.6-2.6c-0.2-1-0.1-2.4,0.9-3.2
		c0.3-0.3,1-0.4,1.5-0.3c0.4,0.1,0.6,0.5,0.1,0.7c-0.3-0.3-1-0.5-1.2,0c-0.3,0.7,0.7,1.2,1.3,1.2c0.8,0.1,1.5-0.3,2.3-0.3
		c0.9,0,1.8,0.5,2.2,1.3c-0.1-0.5,2.4-0.3,2.7-0.3c0.9,0,2.2-0.3,2.8-1.1c-0.8,0.7-2.1,1-3.2,0.9c-0.6-0.1-1.4-0.5-1.6-1
		c-0.2-0.3-0.2-0.9,0.2-1.1c0.5-0.2,0.2,0.4,0.5,0.4c0.1,0,0.3-0.7,0.4-0.8c0.6-0.8,1.7-1.2,2.7-1.3c-0.4-0.2,0.6-1.3,0.8-1.5
		c0.3-0.4,0.7-0.9,0.9-1.4c0,0,0-0.1,0-0.1c-0.3,0.6-1,0.7-1.6,0.7c0.1-0.4,0-0.7,0-1.1c0-0.5,0.3-1,0.4-1.5c0,0,0,0,0,0
		c-0.4-0.3-0.8-0.7-1.2-1.1c-0.3-0.3-0.6-0.7-0.9-1c0,0,0,0,0,0c0,0,0,0,0,0c0.3-0.2,0.6-0.4,0.8-0.7c0,0,0,0,0,0
		c0,0,0.1,0.1,0.1,0.1c0.2,0.1,0.3,0.3,0.5,0.5c0.6,0.6,1.2,1.3,1.6,1.9c0,0,0.1,0,0.1,0.1c0.1,0,0.1,0,0.2,0c0.5-0.1,1-0.4,1.5-0.4
		c0.4,0,0.8,0.1,1.1,0c0,0.6-0.2,1.3-0.7,1.6c0,0,0.1,0,0.1,0c0.5-0.2,1-0.5,1.4-0.9c0.2-0.1,1.3-1.1,1.5-0.8c0.1-1,0.5-2.1,1.3-2.7
		c0.1-0.1,0.8-0.3,0.8-0.4c0-0.3-0.6,0.1-0.4-0.5c0.1-0.4,0.8-0.3,1.1-0.2c0.6,0.3,1,1,1,1.6c0.1,1.1-0.1,2.4-0.9,3.2
		c0.9-0.5,1.1-1.8,1.1-2.8c0-0.3-0.2-2.8,0.3-2.7c-0.8-0.4-1.3-1.3-1.3-2.2c0-0.8,0.3-1.5,0.3-2.3c0-0.5-0.5-1.6-1.2-1.3
		c-0.5,0.2-0.3,0.9,0,1.2c-0.2,0.5-0.5,0.2-0.7-0.1c-0.1-0.4,0-1.1,0.3-1.5c0.7-0.9,2.1-1.1,3.2-0.9c1,0.2,1.9,0.8,2.6,1.6l0.1,0
		c0,0,2.2,3,0.1,7.4c0,0,0,0.1-0.1,0.1c0,0,0,0,0,0c0,0,0,0.1,0,0.1c-0.1,0.3-0.4,0.8-1,1.7c-1.8,2.2-4.1,3.4-6.9,3.4
		c-1.4,0-2.7-0.3-4-0.9c0.5,1.1,0.7,2.2,0.7,3.5c0,2.9-1.1,5.2-3.4,6.9c-0.8,0.6-1.4,1-1.7,1c0,0-0.1,0-0.1,0c0,0,0,0,0,0
		C264.5,280.6,264.4,280.6,264.4,280.6z"/>
	<path id="XMLID_201_" d="M262.5,258.4c0.1,0,0.2,0,0.3,0c0,0,0.1,0,0.1,0c0.1,0,0.1,0,0.2,0c0.4,0,0.9,0.1,1.3,0.3
		c0.2-2.2,1.3-5.2,3.4-9.3c1.9-3.6,3.1-6.1,3.6-7.5c0.1-0.4,0.2-0.7,0.3-1.1c1.1,0.4,2.2,0.4,3.4,0.2c-0.4,1.9-1.4,4.2-2.9,6.8
		c-0.9,1.5-1.5,2.6-1.9,3.3c-0.6,1.2-1.1,2.3-1.4,3.3c-0.4,1.2-0.5,2.4-0.5,3.4c0,2.3,0.7,4.4,2.4,7.1l0.1-0.3
		c-0.8-1.5-1.2-2.9-1.4-4.2c0.9,1.4,2.9,1.4,3.1,0.5c0.2-1-0.6-1.3-0.6-0.7c-0.1,0.5,0.3,0.5,0.3,0.5c0,0.2-0.2,0.6-1.1,0.4
		c-1-0.3-0.7-1.9,0-2.6c0.7-0.6,1.6-1.7,0-2.9c-0.5-0.4-0.7-0.7-0.9-1.1c0-0.1,0.1-0.2,0.1-0.3c0.3,0.8,1.1,0.8,1.2,0.7
		c0.1-0.1,0.3-0.7-0.1-1.2c-0.2-0.2-0.5-0.5-0.5-0.7c0,0,0,0.1,0,0.1l0.1,0c0,0,0.1-0.1,0.1-0.2c0.3-0.5,0.5-1.1,0.9-1.7
		c0.4-0.2,0.8-0.2,0.8-0.2c0-1.3,0.7-2.5,0.7-2.5s0,0,0,0c0.9-1.7,1.6-3.3,2.1-4.9c0.3-1.1,0.5-2.1,0.6-3.1c0.8-0.4,1.6-1,2.1-1.9
		c0.6-0.9,1-2.2,0.6-3.7c-0.2-0.9-0.9-1.9-1.9-2.6c-0.8-0.5-2-0.8-3.3-0.1c-1,0.5-2.1,2.9-0.6,4.1c0.5,0.4,1.4,0.5,1.9,0.1
		c0.2,0.8,0.4,1.7,0.4,2.4c0,0.2,0,0.4,0,0.6c-1.1,0.4-2.4,0.4-3.4,0.1c0.1-0.7,0.2-1.5,0.2-2.3c0-1.9-0.8-3.9-1.6-5.1
		c0.4,1.5,0.7,2.7,0.7,3.9c0,0.8-0.2,1.8-0.5,2.9c-0.7-0.4-1.3-1-1.8-1.6c0-0.2,0.1-0.4,0.1-0.6c0-2.3-0.8-4.4-2-5.7l-0.1,0.2
		c0.5,1.1,0.8,1.6,0.8,1.7c0.3,0.6,0.4,1.2,0.4,1.7c0,0.4-0.1,0.8-0.2,1.2c-0.3-0.5-0.6-1.1-0.8-1.6c-0.6-1.3-1.1-2.7-1.6-3.9
		c0.5-1.3,1-2.6,1.6-3.9c0.2-0.5,0.5-1.1,0.8-1.6c0.1,0.4,0.2,0.8,0.2,1.2c0,0.5-0.1,1.1-0.4,1.7c0,0.1-0.3,0.7-0.8,1.7l0.1,0.2
		c1.2-1.3,2-3.4,2-5.7c0-0.2,0-0.4,0-0.6c0.5-0.6,1.1-1.2,1.8-1.6c0.3,1.1,0.5,2.1,0.5,2.9c0,1.2-0.3,2.5-0.7,3.9
		c0.9-1.1,1.6-3.2,1.6-5.1c0-0.8-0.1-1.6-0.2-2.3c1-0.3,2.3-0.3,3.4,0.1c0,0.2,0,0.4,0,0.6c0,0.7-0.1,1.6-0.4,2.4
		c-0.5-0.4-1.4-0.3-1.9,0.1c-1.5,1.2-0.4,3.6,0.6,4.1c1.3,0.7,2.5,0.4,3.3-0.1c1-0.6,1.7-1.6,1.9-2.6c0.4-1.4,0-2.7-0.6-3.7
		c-0.5-0.9-1.3-1.5-2.1-1.9c-0.1-0.9-0.3-2-0.6-3.1c-0.4-1.6-1.2-3.2-2.1-4.9c0,0,0,0,0,0s-0.7-1.2-0.7-2.5c0,0-0.4,0-0.8-0.2
		c-0.3-0.6-0.7-1.2-0.9-1.7c0-0.1,0-0.2,0-0.2l-0.1,0c0,0,0,0.1,0,0.1c0-0.3,0.3-0.5,0.5-0.7c0.5-0.5,0.3-1,0.2-1.2
		c-0.1-0.2-0.9-0.2-1.2,0.7c0-0.1-0.1-0.2-0.1-0.3c0.1-0.4,0.4-0.8,0.9-1.1c1.6-1.2,0.7-2.3,0-2.9c-0.7-0.6-1.1-2.3,0-2.6
		c0.9-0.2,1.1,0.2,1.1,0.4c0,0-0.4,0-0.3,0.5c0.1,0.5,0.9,0.2,0.6-0.7c-0.2-0.9-2.2-0.9-3.1,0.5c0.2-1.3,0.7-2.7,1.4-4.2l-0.1-0.3
		c-1.7,2.6-2.4,4.8-2.4,7.1c0,1.1,0.2,2.2,0.5,3.4c0.3,1,0.8,2.1,1.4,3.3c0.4,0.7,1,1.8,1.9,3.3c1.5,2.7,2.5,5,2.9,6.9
		c-1.2-0.3-2.4-0.2-3.4,0.1c-0.1-0.4-0.2-0.8-0.4-1.2c-0.5-1.4-1.7-3.9-3.6-7.5c-2.3-4.5-3.4-7.7-3.4-9.9c0-2.9,0.9-5.3,2.7-7.3
		c0.3-0.4,0.7-0.7,1.1-1c0.1,0,0.1,0,0.2,0c0.5,0.1,1,0.4,1.5,0.4c0.4,0,0.8-0.1,1.1,0c0-0.6-0.2-1.3-0.7-1.6c0,0,0.1,0,0.1,0
		c0.5,0.2,1,0.5,1.4,0.9c0.2,0.1,1.3,1.1,1.5,0.8c0.1,1,0.5,2.1,1.3,2.7c0.1,0.1,0.8,0.3,0.8,0.4c0,0.3-0.6-0.1-0.4,0.5
		c0.1,0.4,0.8,0.3,1.1,0.2c0.6-0.3,1-1,1-1.6c0.1-1.1-0.1-2.4-0.9-3.2c0.9,0.5,1.1,1.8,1.1,2.8c0,0.3-0.2,2.8,0.3,2.7
		c-0.8,0.4-1.3,1.3-1.3,2.2c0,0.8,0.3,1.5,0.3,2.3c0,0.5-0.5,1.6-1.2,1.3c-0.5-0.2-0.3-0.9,0-1.2c-0.2-0.5-0.5-0.2-0.7,0.1
		c-0.1,0.4,0,1.1,0.3,1.5c0.7,0.9,2.1,1.1,3.2,0.9c1-0.2,1.9-0.8,2.6-1.6l0.1,0c0,0,2.2-3,0.1-7.4c0,0,0-0.1-0.1-0.1c0,0,0,0,0,0
		c0,0,0-0.1,0-0.1c-0.1-0.3-0.4-0.8-1-1.7c-1.8-2.2-4.1-3.4-6.9-3.4c-2.6,0-5,1.1-7,3.2c-1,1-1.7,2.1-2.2,3.2
		c-0.1-1.9-0.1-3.8-0.2-5.5c-0.1-2-0.2-3.8-0.2-5.3c-0.1-1.6-0.2-3-0.2-4.1c-0.1-1.1-0.1-2-0.2-2.7c0-0.6-0.1-0.9-0.1-0.9
		s0,0.3-0.1,0.9c0,0.6-0.1,1.5-0.2,2.7c-0.1,1.1-0.1,2.5-0.2,4.1c-0.1,1.6-0.2,3.4-0.2,5.3c-0.1,2-0.1,4.1-0.2,6.3
		c-0.1,2.2-0.1,4.6-0.2,7.1c0,1.2,0,2.5-0.1,3.7c0,0.6,0,1.3,0,1.9c0,0.6,0,1.3,0,1.9c0,2.6,0,5.2,0,7.8c0,2.6,0,5.2,0,7.8
		c0,1.3,0,2.6,0,3.8c0,1.3,0,2.5,0.1,3.7c0.1,4.9,0.2,9.5,0.4,13.4c0.1,2,0.2,3.8,0.2,5.3C262.4,256,262.5,257.3,262.5,258.4z
		 M276.2,221.8c0.6,0.4,1.2,0.9,1.5,1.7c0.5,1,0.5,2.6-0.5,3.7c-0.4,0.4-1.1,0.8-1.6,0.9c-0.4,0.1-1,0-1.4-0.2
		c-0.8-0.4-1.4-1.3-1-2.2c0.2-0.4,0.8-1,1.4-0.9c0.2,0,0.3,0.1,0.4,0.2c-0.1,0.3-0.2,0.6-0.3,0.9c0,0,0,0,0,0v0l0,0
		c0,0.1,0,0.3,0.2,0.3c0.5,0,0.8-0.8,0.6-1.3C275.8,223.8,276.1,222.7,276.2,221.8z M274.9,225.6c0.1-0.2,0.2-0.3,0.3-0.5
		C275.3,225.3,275.1,225.6,274.9,225.6z M276.2,239.1c-0.1-0.9-0.4-2-0.8-3c0.3-0.5,0-1.3-0.6-1.3c-0.2,0-0.2,0.2-0.2,0.3
		c0.1,0.3,0.2,0.6,0.3,0.9c-0.1,0.1-0.3,0.1-0.4,0.2c-0.6,0.1-1.2-0.4-1.4-0.9c-0.3-0.9,0.2-1.8,1-2.2c0.4-0.2,1-0.3,1.4-0.2
		c0.5,0.1,1.2,0.4,1.6,0.9c1,1.1,1,2.7,0.5,3.7C277.3,238.2,276.8,238.8,276.2,239.1z M274.9,235.3c0.2,0.1,0.3,0.3,0.3,0.5
		C275.1,235.6,275,235.4,274.9,235.3z M268.6,222.4c-0.4-1.2-1.2-2.5-2.4-4.3c-1.1-1.6-1.7-2.5-1.8-2.7c-0.2-0.3-0.3-0.6-0.5-0.9
		c0-0.6,0-1.1,0-1.7c0-0.6,0-1.3,0-1.9c0-0.6,0-1.3,0-1.9c0-0.7,0-1.5,0-2.2c0.7,2,1.8,4.3,3.2,7c1.5,2.8,2.6,5.2,3.3,7.1
		c-0.3,0.2-0.7,0.4-0.9,0.7C269.1,221.8,268.9,222.1,268.6,222.4z M265.4,240.6c-0.8,1.1-1.3,2-1.8,2.7c0.1-2.4,0.1-4.9,0.2-7.5
		c0-1.2,0-2.5,0.1-3.7c0-1.3,0-2.5,0-3.8c0-2.6,0-5.2,0-7.8c0-0.8,0-1.7,0-2.5c0.4,0.6,0.9,1.4,1.5,2.2c1,1.4,1.7,2.6,2.1,3.6
		c-1.1,1.9-1.7,4.1-2.2,6.2c-0.1-0.3-0.2-0.6-0.4-0.9c0,0,0,0,0,0c0.1,0.4,0.2,0.8,0.3,1.3c-0.1,0.4-0.2,0.9-0.3,1.3c0,0,0,0,0,0
		c0.1-0.3,0.2-0.6,0.4-0.9c0.5,2.1,1.1,4.3,2.2,6.2C267.1,238,266.4,239.2,265.4,240.6z M263.2,256.6c0-0.6,0.1-1.2,0.1-1.9
		c0.1-1.6,0.2-3.4,0.2-5.3c0-0.6,0-1.1,0.1-1.7c0.2-0.7,0.5-1.4,0.9-2.1c0.1-0.2,0.7-1.1,1.8-2.7c1.2-1.8,2-3.2,2.4-4.3
		c0.3,0.3,0.5,0.6,0.8,0.8c0.3,0.2,0.6,0.5,0.9,0.7c-0.7,1.9-1.8,4.3-3.3,7.1C265,251,263.7,254.2,263.2,256.6z"/>
	<path id="XMLID_200_" d="M262.6,259.9c0.1,0,0.1,0,0.2,0c0,0,0,0,0,0c0,0,0.1,0,0.1,0c0.5,0,1,0.2,1.4,0.6c0.5,0.4,0.9,1.1,0.9,1.8
		c0,0.3-0.1,0.7-0.2,1c-0.1,0.3-0.3,0.5-0.5,0.7c-0.1,0.1-0.3,0.2-0.4,0.3c-0.3,0.2-0.6,0.3-0.9,0.3c-0.1,0-0.2,0-0.3,0
		c-0.6,0-0.9-0.2-1.3-0.6c-0.5-0.4-0.5-1-0.5-1.6c0,0,0,0,0,0c0-0.1-0.3-0.1-0.3-0.2c0-0.1-0.1-0.1-0.1-0.2
		C260.6,261,261.4,260,262.6,259.9z"/>
	<circle id="XMLID_199_" cx="273.7" cy="274" r="2.4"/>
</g>
<g id="XMLID_219_">
	<path id="XMLID_291_" class="st0" d="M126,225.9c-2.2,0-4.4,0-6.5,0c-4.3,0-8.4,0.1-12.3,0.1c-3.9,0-7.6,0.1-11,0.2
		c-1.7,0-3.3,0.1-4.9,0.1c-1.6,0-3,0.1-4.4,0.1c-2.8,0.1-5.2,0.1-7.2,0.2c-2,0-2,0.3,0,0.4c2,0,4.4,0.1,7.2,0.2
		c1.4,0,2.9,0.1,4.4,0.1c1.6,0,3.2,0.1,4.9,0.1c3.4,0.1,7.1,0.1,11,0.2c3.9,0,8,0.1,12.3,0.1c2.1,0,4.3,0,6.5,0c0.9,0,1.9,0,2.9,0
		c-0.1-0.1-0.4-0.5-0.4-0.9c0-0.4,0.3-0.7,0.4-0.9C127.9,225.9,126.9,225.9,126,225.9z"/>
	<path id="XMLID_290_" class="st0" d="M203.5,226.6c-2-0.1-4.4-0.1-7.2-0.2c-1.4,0-2.9-0.1-4.4-0.1c-1.6,0-3.2-0.1-4.9-0.1
		c-3.4-0.1-7.1-0.1-11-0.2c-3.9,0-8-0.1-12.3-0.1c-2.1,0-4.3,0-6.5,0c-0.9,0-1.9,0-2.9,0c0.1,0.1,0.4,0.5,0.4,0.9
		c0,0.4-0.3,0.7-0.4,0.9c1,0,1.9,0,2.9,0c2.2,0,4.4,0,6.5,0c4.3,0,8.4-0.1,12.3-0.1c3.9,0,7.6-0.1,11-0.2c1.7,0,3.3-0.1,4.9-0.1
		c1.6,0,3-0.1,4.4-0.1c2.8-0.1,5.2-0.1,7.2-0.2C205.5,226.9,205.5,226.6,203.5,226.6z"/>
	<path id="XMLID_220_" class="st0" d="M154.1,226.7c-0.2-0.5-0.4-1-0.8-1.4c-0.3-0.4-0.8-0.8-1.2-1.1c0.1-0.2,0.1-0.4,0.1-0.6
		c0-0.2,0-0.4,0-0.6c0-1.1-0.3-2-0.9-2.6c-0.6-0.6-1.3-0.9-2.1-0.9c-0.3,0-0.6,0-0.9,0c-0.7,0.1-1.2,0.6-1.5,1.2
		c-0.1,0.4-0.1,0.7,0,1.1c0.1,0.2,0.3,0.6,0.8,0.8c0.3,0.1,0.7,0.1,1,0c0.2-0.1,0.6-0.3,0.7-0.8c0-0.2-0.1-0.5-0.3-0.7
		c-0.2-0.2-0.4-0.3-0.7-0.2c-0.2,0.1-0.5,0.3-0.4,0.6c0,0.2,0.2,0.3,0.3,0.3c0.1,0,0.2,0,0.2-0.1c0,0,0-0.1,0-0.1
		c0,0-0.1-0.1-0.1-0.1c0,0-0.1,0-0.1,0.1c0,0,0,0,0,0c0,0,0,0-0.1,0c0-0.1,0-0.1,0-0.2c0.1-0.1,0.3-0.2,0.4-0.1
		c0.2,0.1,0.3,0.3,0.3,0.6c0,0.1-0.1,0.3-0.2,0.3c-0.1,0.1-0.3,0.2-0.4,0.2c-0.4,0-0.8-0.2-0.9-0.5c-0.2-0.4-0.1-0.7-0.1-0.9
		c0.1-0.4,0.4-0.7,0.7-0.9c0.3-0.1,0.6-0.2,0.9-0.2c0.3,0,0.6,0.1,0.9,0.1c0.1,0,0.3,0.1,0.4,0.1c0.3,0.2,0.6,0.4,0.8,0.7
		c0.2,0.3,0.4,0.6,0.5,1c0.1,0.4,0.1,0.8,0.1,1.2c0,0.2,0,0.3,0,0.5c0,0.1,0,0.3-0.1,0.4c-0.4-0.2-0.8-0.3-1.2-0.4
		c-0.4-0.1-0.9-0.2-1.4-0.2c-0.6,0-1.3,0.1-2,0.2c-0.7,0.1-1.3,0.4-2,0.7c-0.3,0.2-0.7,0.5-1,0.7c-0.2,0-0.4,0.1-0.6,0.1h-0.4
		c0.1,0,0.1-0.8,0.2-1.2c0.1-0.4,0.1-0.8,0.1-1.3c0-0.7-0.1-1.2-0.4-1.6c-0.2-0.3-0.4-0.5-0.7-0.6c-0.1,0-0.3-0.1-0.4-0.1
		c-0.2,0-0.3,0-0.4,0.1c-0.3,0.1-0.5,0.3-0.7,0.6c-0.3,0.4-0.4,1-0.4,1.6c0,0.4,0,0.9,0.1,1.3c0.1,0.4,0.1,1.2,0.2,1.2h-0.4
		c-0.2,0-0.4-0.1-0.6-0.1c-0.3-0.2-0.7-0.5-1-0.6c-0.7-0.3-1.3-0.6-2-0.7c-0.7-0.1-1.4-0.2-2-0.2c-0.5,0-1,0-1.4,0.2
		c-0.4,0.1-0.8,0.2-1.3,0.4c0-0.1-0.1-0.3-0.1-0.4c0-0.1,0-0.3,0-0.5c0-0.4,0-0.8,0.1-1.2c0.1-0.4,0.2-0.7,0.4-1
		c0.2-0.3,0.5-0.5,0.8-0.7c0.1-0.1,0.3-0.1,0.5-0.2c0.3,0,0.5-0.1,0.7-0.1c0.3,0,0.6,0.1,0.9,0.2c0.3,0.2,0.6,0.5,0.7,0.9
		c0.1,0.2,0.1,0.6-0.1,0.9c-0.1,0.3-0.5,0.5-0.9,0.5c-0.2,0-0.4-0.1-0.4-0.2c-0.1-0.1-0.2-0.2-0.2-0.3c0-0.2,0.1-0.5,0.3-0.6
		c0.1,0,0.3,0,0.4,0.1c0,0.1,0,0.1,0,0.2c0,0,0,0-0.1,0c0,0,0,0,0,0c0,0-0.1-0.1-0.1-0.1c0,0-0.1,0-0.1,0.1c0,0,0,0.1,0,0.1
		c0,0.1,0.1,0.1,0.2,0.1c0.1,0,0.3-0.1,0.3-0.3c0.1-0.3-0.2-0.5-0.4-0.6c-0.3-0.1-0.5,0-0.7,0.2c-0.2,0.2-0.3,0.5-0.3,0.7
		c0.1,0.5,0.4,0.7,0.7,0.8c0.3,0.1,0.7,0.1,1,0c0.5-0.2,0.7-0.6,0.8-0.8c0.1-0.3,0.1-0.7,0-1.1c-0.2-0.6-0.8-1.1-1.5-1.2
		c-0.3-0.1-0.6-0.1-0.8,0c-0.8,0.1-1.5,0.4-2.1,1c-0.6,0.6-0.9,1.5-0.9,2.6c0,0.2,0,0.4,0,0.6c0,0.2,0.1,0.4,0.1,0.6
		c-0.5,0.3-0.9,0.7-1.2,1.1c-0.4,0.5-0.6,0.9-0.8,1.4l0,0c0,0,0,0,0,0c0,0,0,0,0,0.1l0,0c0.1,0.5,0.4,1,0.8,1.4
		c0.3,0.4,0.8,0.8,1.2,1.1c-0.1,0.2-0.1,0.4-0.1,0.6c0,0.2,0,0.4,0,0.6c0,1.1,0.3,2,0.9,2.6c0.1,0.1,0.2,0.2,0.3,0.2l0.1,0.1l0,0
		l0.3,0.2c0.2,0.1,0.3,0.2,0.5,0.3l-0.1,0l0.2,0.1h0l0.2,0.1c0,0,0,0,0,0l0,0l0,0l0.2,0c0,0,0,0,0,0l0.1,0l0,0
		c0.2,0,0.3,0.1,0.5,0.1c0.2,0,0.3,0,0.3,0l-0.1,0.1l0.5-0.2c0,0,0,0,0,0l0,0c1.3-0.5,1.5-1.5,1.5-1.6l0,0l0,0c0-0.3,0-0.6-0.2-0.9
		c-0.2-0.2-0.5-0.5-0.9-0.5c-0.1,0-0.3,0.1-0.4,0.3c0,0.1,0,0.2,0,0.2c0,0.1,0.1,0.1,0.2,0l0,0l0,0c0-0.1,0.1-0.2,0.2-0.2
		c0,0,0.1,0,0.1,0.1c0,0.1,0,0.3-0.1,0.3c-0.1,0.1-0.2,0.1-0.3,0.2c-0.1,0.1-0.2,0.1-0.3,0.2c-0.2,0.2-0.3,0.4-0.2,0.7
		c-0.1,0-0.2,0.1-0.3,0.3c0-0.1,0.1-0.3,0-0.4c0-0.1-0.1-0.2-0.3-0.2c0,0-0.1,0-0.1,0c0,0-0.1,0-0.1,0.1c0,0,0,0,0,0c0,0,0,0,0,0
		c-0.1,0-0.1,0-0.1,0c-0.3,0-0.5,0.1-0.8,0.2c-0.1-0.1-0.2-0.1-0.4-0.1l0,0c-0.1,0-0.1,0-0.2,0c0.1,0,0.2-0.1,0.2-0.2l0.1-0.1
		l-0.1,0c-0.1,0-0.1-0.1-0.1-0.1c0,0-0.1-0.1-0.1-0.1c-0.1-0.1-0.2-0.1-0.2-0.2c-0.1,0-0.1,0-0.1-0.1c-0.1,0-0.1-0.1-0.1-0.1
		c0,0,0,0,0,0c0,0,0,0,0,0c0-0.1,0-0.1,0-0.2l0.1-0.1l-0.1,0c0-0.3-0.1-0.6-0.1-0.8c0-0.2,0-0.3,0-0.5c0-0.1,0-0.3,0.1-0.4
		c0.4,0.2,0.8,0.3,1.3,0.4c0.4,0.1,0.9,0.2,1.4,0.2c0.6,0,1.3-0.1,2-0.2c0.7-0.1,1.3-0.4,2-0.7c0.3-0.2,0.7-0.3,1-0.5
		c0.2,0,0.4,0.1,0.6,0.1l0,0l0,0h0.4c-0.1,0-0.2,0.5-0.2,1c0,0.4-0.1,0.8-0.1,1.2c0,0.7,0.1,1.2,0.4,1.6c0.2,0.3,0.4,0.5,0.7,0.6
		c0.1,0,0.3,0.1,0.4,0.1c0.2,0,0.3,0,0.4-0.1c0.3-0.1,0.5-0.3,0.7-0.6c0.3-0.4,0.4-0.9,0.4-1.6c0-0.5,0-0.8-0.1-1.1
		c-0.1-0.4-0.1-1-0.2-1h0.4l0,0l0,0l0,0c0.2,0,0.4-0.1,0.6-0.1l0,0c-0.2,0-0.4,0-0.6,0c0.2,0,0.4,0,0.6,0c0.3,0.2,0.7,0.4,1,0.6
		c0.7,0.3,1.3,0.5,2,0.7c0.7,0.1,1.4,0.2,2,0.2c0.5,0,1-0.1,1.4-0.2c0.4-0.1,0.8-0.3,1.2-0.4c0,0.1,0.1,0.3,0.1,0.4
		c0,0.1,0,0.3,0,0.5c0,0.3,0,0.6-0.1,0.9l-0.2,0l0.1,0.1c0.1,0.2-0.1,0.3-0.2,0.4c0,0-0.1,0.1-0.1,0.1c-0.1,0-0.2,0.1-0.2,0.2
		c0,0-0.1,0.1-0.1,0.1c0,0-0.1,0.1-0.1,0.1l-0.1,0l0.1,0.1c0.1,0.1,0.2,0.1,0.2,0.2c-0.1,0-0.1,0-0.2,0l0,0c-0.2,0-0.4,0.1-0.4,0.1
		c-0.3-0.2-0.6-0.3-0.8-0.2c0,0-0.1,0-0.1,0c0,0,0,0,0,0c0,0,0,0,0,0c0-0.1-0.1-0.1-0.1-0.1c0,0-0.1,0-0.1,0c-0.1,0-0.2,0.1-0.3,0.2
		c0,0.1,0,0.3,0,0.4c-0.1-0.1-0.2-0.2-0.3-0.3c0-0.2,0-0.5-0.2-0.7c-0.1-0.1-0.2-0.1-0.3-0.2c-0.1-0.1-0.2-0.1-0.3-0.2
		c-0.1-0.1-0.1-0.2-0.1-0.3c0,0,0-0.1,0.1-0.1c0.1,0,0.1,0.1,0.2,0.2l0,0l0,0c0.1,0,0.2,0,0.2,0c0-0.1,0-0.1,0-0.2
		c-0.1-0.1-0.3-0.3-0.4-0.3c-0.4,0-0.7,0.2-0.9,0.5c-0.2,0.3-0.2,0.6-0.2,0.9l0,0l0,0c0,0,0.2,1.1,1.5,1.6l0,0c0,0,0,0,0,0l0.6,0.2
		l-0.1-0.1c0.1,0,0.4,0,0.5,0c0.2,0,0.8,0,0.8-0.1v0l-0.4-0.1h0l0.2,0l0,0l0,0c0,0,0,0,0,0l0,0h0l0,0c0,0,0,0,0,0l0.2-0.1h0
		c0.2,0,0.4-0.2,0.5-0.3l0.1-0.1c0.2-0.1,0.4-0.3,0.5-0.4c0.6-0.6,0.9-1.5,0.9-2.6c0-0.2,0-0.4,0-0.6c0-0.2-0.1-0.4-0.1-0.6
		c0.5-0.3,0.9-0.7,1.2-1.1c0.4-0.4,0.6-0.9,0.8-1.4l0,0C154.1,226.8,154.1,226.8,154.1,226.7C154.1,226.8,154.1,226.8,154.1,226.7
		L154.1,226.7z M149.6,234c-0.2,0-0.4,0.1-0.5,0.1c-0.2,0-0.3,0-0.3,0c-0.1,0-0.3-0.1-0.4-0.1l0,0l0,0c-1.2-0.4-1.4-1.3-1.4-1.4l0,0
		c0,0.1,0.3,1,1.4,1.4l0,0l0,0c0.1,0,0.3,0.1,0.4,0.1c0,0,0.1,0,0.3,0C149.2,234.1,149.4,234,149.6,234L149.6,234L149.6,234
		L149.6,234L149.6,234z M131.8,231.5C131.8,231.5,131.8,231.5,131.8,231.5L131.8,231.5C131.8,231.5,131.8,231.5,131.8,231.5
		L131.8,231.5z M142.7,220.9c0.2,0.4,0.4,0.9,0.4,1.5v0C143.1,221.8,142.9,221.3,142.7,220.9c-0.2-0.3-0.4-0.4-0.6-0.5
		c-0.1,0-0.2-0.1-0.4-0.1c0.1,0,0.3,0,0.4,0.1C142.3,220.5,142.5,220.7,142.7,220.9z M139.7,228.6L139.7,228.6l0.2-0.1
		c0,0,0.1-0.1,0.1-0.1c0,0-0.1,0.1-0.1,0.1L139.7,228.6z M143.7,225L143.7,225l-0.2,0.1c0,0-0.1,0.1-0.1,0.1c0,0,0.1-0.1,0.1-0.1
		L143.7,225z M142.9,231c0,0.7-0.1,1.2-0.4,1.5c-0.1,0.2-0.3,0.3-0.4,0.4c-0.1,0.1-0.3,0.1-0.4,0.1c-0.1,0-0.3,0-0.4-0.1
		c-0.2-0.1-0.3-0.2-0.4-0.4c-0.3-0.3-0.4-0.8-0.4-1.5l0,0c0,0.7,0.1,1.2,0.4,1.5c0.1,0.2,0.3,0.3,0.4,0.4c0.1,0.1,0.3,0.1,0.4,0.1
		c0.1,0,0.3,0,0.4-0.1c0.2-0.1,0.3-0.2,0.4-0.4C142.8,232.2,142.9,231.7,142.9,231L142.9,231z M148.6,225.8
		c-0.8-0.4-1.6-0.6-2.5-0.8c-0.4-0.1-0.9-0.2-1.3-0.2c0,0,0,0,0,0c1.2-0.6,2.5-0.9,4.2-0.9c0.8,0,1.6,0.2,2.5,0.5
		c-0.3,0.6-0.7,1.2-1.3,1.7c-0.1,0.1-0.3,0.3-0.5,0.4C149.3,226.2,149,226,148.6,225.8z M140.9,221.1c0.2-0.2,0.3-0.3,0.4-0.3
		c0.2-0.1,0.5-0.1,0.7,0c0.1,0.1,0.3,0.2,0.4,0.3c0.3,0.3,0.4,0.8,0.4,1.4c0,0.4,0,0.7-0.1,1.1c-0.1,0.3-0.2,0.7-0.3,1
		c-0.1,0-0.2,0-0.4,0c-0.1,0-0.3,0-0.4,0l0,0c-0.1,0-0.2,0-0.3,0c0,0,0,0,0,0c0,0,0,0,0,0c-0.1,0-0.2,0-0.3,0
		c-0.1-0.4-0.2-0.7-0.3-1c-0.1-0.4-0.1-0.7-0.1-1.1C140.5,221.9,140.7,221.4,140.9,221.1z M141.6,224.8L141.6,224.8
		c0.2,0,0.3,0,0.4,0C141.9,224.9,141.8,224.9,141.6,224.8L141.6,224.8L141.6,224.8L141.6,224.8z M141.7,228.4c-0.1,0-0.3,0-0.4,0
		c-0.1,0-0.1,0-0.2,0c0.1-0.2,0.1-0.3,0.2-0.5c0.1-0.2,0.2-0.4,0.3-0.5c0.1,0.2,0.2,0.3,0.3,0.5c0.1,0.2,0.2,0.3,0.2,0.5l0,0
		c0,0-0.1,0-0.1,0C142,228.4,141.8,228.4,141.7,228.4z M141,227.7c-0.1,0.2-0.2,0.4-0.3,0.6c-0.1,0-0.2,0-0.3-0.1
		C140.6,228.1,140.8,227.9,141,227.7z M141.3,226.8L141.3,226.8L141.3,226.8c-0.4,0.5-0.9,1-1.4,1.4c-1.2-0.3-2.4-0.7-3.5-1.3
		c1.1-0.6,2.2-1.1,3.5-1.3C140.4,225.8,140.9,226.3,141.3,226.8z M141.7,225.1c0.1,0,0.3,0,0.4,0c0.1,0,0.1,0,0.1,0l0,0
		c-0.1,0.2-0.1,0.3-0.2,0.5c-0.1,0.2-0.2,0.4-0.3,0.5c-0.1-0.2-0.2-0.3-0.3-0.5c-0.1-0.1-0.1-0.3-0.2-0.5c0,0,0.1,0,0.2,0
		C141.4,225.1,141.6,225.1,141.7,225.1z M142.4,225.8c0.1-0.2,0.2-0.3,0.2-0.5c0.1,0,0.2,0,0.3,0.1
		C142.8,225.5,142.6,225.6,142.4,225.8z M143,228.2c-0.1,0-0.2,0-0.3,0.1c-0.1-0.2-0.1-0.4-0.2-0.5
		C142.6,227.9,142.8,228.1,143,228.2z M140.4,225.3c0.1,0,0.2,0,0.3-0.1c0.1,0.2,0.2,0.4,0.3,0.6
		C140.8,225.7,140.6,225.5,140.4,225.3z M142.2,226.8L142.2,226.8L142.2,226.8c0.4-0.5,0.9-1,1.4-1.4c1.2,0.3,2.4,0.7,3.5,1.3
		c-1.1,0.6-2.2,1.1-3.5,1.3C143,227.7,142.6,227.3,142.2,226.8z M141.6,228.7L141.6,228.7L141.6,228.7c-0.1,0-0.2,0-0.3,0
		c0,0,0,0,0,0c0,0,0,0,0,0C141.4,228.7,141.5,228.7,141.6,228.7z M140.6,229.9c0.1-0.3,0.2-0.7,0.3-1c0.1,0,0.2,0,0.3,0c0,0,0,0,0,0
		c0.1,0,0.2,0,0.3,0l0,0c0.1,0,0.3,0,0.4,0c0.1,0,0.3,0,0.4,0c0.1,0.4,0.2,0.7,0.3,1c0.1,0.3,0.1,0.7,0.1,1.1c0,0.7-0.1,1.2-0.4,1.5
		c-0.1,0.2-0.3,0.3-0.4,0.3c-0.3,0.1-0.5,0.1-0.7,0c-0.1-0.1-0.3-0.2-0.4-0.3c-0.2-0.3-0.4-0.8-0.4-1.5
		C140.5,230.7,140.6,230.3,140.6,229.9z M142.8,229.9c-0.1-0.4-0.2-0.8-0.3-1.1C142.7,229.1,142.8,229.5,142.8,229.9
		c0.1,0.3,0.1,0.7,0.1,1.1C142.9,230.6,142.9,230.3,142.8,229.9z M142.5,224.7c0.1-0.4,0.3-0.7,0.3-1.1c0.1-0.4,0.1-0.7,0.1-1.1
		c0,0,0,0,0,0c0,0.4-0.1,0.7-0.1,1.1C142.8,224,142.7,224.4,142.5,224.7z M140.5,222.6c0,0,0,0.1,0,0.1
		C140.5,222.6,140.5,222.6,140.5,222.6L140.5,222.6z M141.3,224.8C141.3,224.8,141.3,224.8,141.3,224.8
		C141.3,224.8,141.3,224.8,141.3,224.8c-0.1,0-0.3,0-0.4,0C141,224.8,141.1,224.8,141.3,224.8z M140,225.2L140,225.2L140,225.2
		c-0.1,0-0.1,0-0.1-0.1C139.9,225.1,139.9,225.2,140,225.2L140,225.2L140,225.2c0.1,0,0.3-0.1,0.5-0.1
		C140.3,225.1,140.2,225.2,140,225.2z M133.3,227.5c0.1-0.1,0.3-0.3,0.5-0.4c0.3,0.2,0.7,0.4,1.1,0.6c0.8,0.4,1.6,0.6,2.5,0.8
		c0.4,0.1,0.9,0.2,1.4,0.2c0,0,0,0,0,0c-1.2,0.6-2.6,0.9-4.2,0.9c-0.8,0-1.6-0.2-2.5-0.5C132.3,228.6,132.7,228,133.3,227.5z
		 M137.4,225c-0.9,0.2-1.7,0.5-2.5,0.8c-0.4,0.2-0.8,0.4-1.1,0.6c-0.2-0.1-0.3-0.2-0.5-0.4c-0.6-0.5-1-1.1-1.3-1.7
		c0.8-0.3,1.7-0.5,2.5-0.5c1.6,0,3,0.3,4.2,0.9c0,0,0,0,0,0C138.3,224.8,137.8,224.9,137.4,225z M137.8,228.2
		c-0.9-0.2-1.7-0.5-2.5-0.8c-0.4-0.2-0.7-0.4-1.1-0.6c0.3-0.2,0.7-0.4,1.1-0.6c0.8-0.4,1.6-0.6,2.5-0.8c0.5-0.1,1.1-0.2,1.6-0.2
		c0,0,0.1,0,0.1,0.1c-0.6,0.2-1.1,0.3-1.7,0.6c-0.6,0.2-1.2,0.5-1.7,0.9c-0.2-0.1-0.3-0.2-0.5-0.3c0,0,0,0-0.1,0c0,0-0.1,0-0.1,0.1
		c0,0.1,0,0.1,0.1,0.2c0.1,0.1,0.2,0.1,0.3,0.2c-0.1,0.1-0.2,0.1-0.3,0.2c-0.1,0.1-0.1,0.1-0.1,0.2c0,0.1,0.1,0.1,0.1,0.1
		c0,0,0,0,0.1,0c0.1-0.1,0.3-0.2,0.4-0.3c0.5,0.3,1.1,0.6,1.7,0.9c0.5,0.2,1.1,0.4,1.7,0.6c0,0-0.1,0-0.1,0.1
		C138.8,228.4,138.3,228.3,137.8,228.2z M133.2,226.8c-0.2,0.1-0.3,0.2-0.4,0.4c-0.6,0.5-1,1.1-1.3,1.7c-0.4-0.2-0.8-0.5-1.1-0.9
		c-0.3-0.3-0.6-0.8-0.8-1.2c0.2-0.5,0.4-0.9,0.8-1.2c0.3-0.3,0.7-0.6,1.1-0.9c0.3,0.6,0.7,1.2,1.3,1.7
		C132.9,226.5,133.1,226.7,133.2,226.8z M142.1,228.7c-0.1,0-0.2,0-0.3,0C141.9,228.7,142,228.7,142.1,228.7c0.2,0,0.3,0,0.4,0
		C142.4,228.7,142.3,228.7,142.1,228.7z M143.4,228.4L143.4,228.4L143.4,228.4c0.1,0,0.1,0,0.1,0.1
		C143.5,228.4,143.5,228.4,143.4,228.4L143.4,228.4L143.4,228.4c-0.1,0-0.3,0.1-0.5,0.1C143.1,228.4,143.2,228.4,143.4,228.4z
		 M145.6,227.8c0.6-0.2,1.2-0.5,1.7-0.9c0.2,0.1,0.3,0.2,0.5,0.3c0.1,0,0.1,0,0.2-0.1c0-0.1,0-0.1-0.1-0.2c-0.1-0.1-0.2-0.1-0.3-0.2
		c0.1-0.1,0.2-0.1,0.3-0.2c0.1-0.1,0.1-0.2,0.1-0.2c0-0.1-0.1-0.1-0.2-0.1c-0.1,0.1-0.3,0.2-0.4,0.3c-0.5-0.3-1.1-0.6-1.7-0.9
		c-0.5-0.2-1.1-0.4-1.7-0.6c0,0,0.1,0,0.1-0.1c0.5,0,1,0.1,1.6,0.2c0.9,0.2,1.7,0.5,2.5,0.8c0.4,0.2,0.7,0.4,1.1,0.6
		c-0.3,0.2-0.7,0.4-1.1,0.6c-0.8,0.4-1.6,0.6-2.5,0.8c-0.5,0.1-1.1,0.2-1.6,0.2c0,0-0.1,0-0.1-0.1
		C144.5,228.2,145.1,228,145.6,227.8z M146,228.6c0.9-0.2,1.8-0.5,2.5-0.8c0.4-0.2,0.8-0.4,1.1-0.6c0.2,0.1,0.3,0.3,0.5,0.4
		c0.6,0.5,1,1.1,1.3,1.7c-0.8,0.3-1.7,0.5-2.5,0.5c-1.6,0-3-0.3-4.2-0.9c0,0,0,0,0,0C145.1,228.7,145.6,228.7,146,228.6z
		 M142.9,225.1C142.9,225.1,143,225.1,142.9,225.1C143,225.1,142.9,225.1,142.9,225.1l-0.6-0.1L142.9,225.1z M143,222.6
		c0-0.7-0.1-1.2-0.4-1.5c-0.1-0.2-0.3-0.3-0.5-0.4c-0.3-0.2-0.6-0.1-0.9,0c-0.2,0.1-0.3,0.2-0.5,0.4c-0.3,0.3-0.4,0.8-0.4,1.5l0,0
		c0-0.7,0.1-1.2,0.4-1.5c0.2-0.2,0.3-0.3,0.5-0.4c0.3-0.1,0.6-0.2,0.9,0c0.2,0.1,0.3,0.2,0.5,0.4C142.9,221.3,143,221.8,143,222.6
		C143,222.6,143,222.6,143,222.6z M140,225.1C140,225.1,140,225.1,140,225.1C140,225.1,140,225.1,140,225.1c0.2,0,0.3-0.1,0.5-0.1
		C140.3,225,140.2,225.1,140,225.1z M139.9,225C139.9,225,139.9,225,139.9,225c0.1,0,0.3,0,0.4,0C140.1,225,140,225,139.9,225z
		 M139.7,225L139.7,225L139.7,225L139.7,225z M140.5,228.5C140.5,228.5,140.5,228.5,140.5,228.5
		C140.5,228.5,140.5,228.5,140.5,228.5l0.6,0.1L140.5,228.5z M140.4,231c0,0.7,0.1,1.2,0.4,1.5c0.2,0.2,0.3,0.3,0.5,0.4
		c0.1,0.1,0.3,0.1,0.4,0.1c0.1,0,0.3,0,0.4-0.1c0.2-0.1,0.3-0.2,0.5-0.4c0.3-0.3,0.4-0.8,0.4-1.5l0,0c0,0.7-0.1,1.2-0.4,1.5
		c-0.1,0.2-0.3,0.3-0.5,0.4c-0.1,0.1-0.3,0.1-0.4,0.1c-0.1,0-0.3,0-0.4-0.1c-0.1-0.1-0.3-0.2-0.5-0.4
		C140.5,232.2,140.4,231.7,140.4,231L140.4,231z M143.4,228.5C143.4,228.5,143.4,228.5,143.4,228.5
		C143.4,228.5,143.4,228.5,143.4,228.5c-0.1,0-0.3,0.1-0.5,0.1C143.1,228.6,143.2,228.5,143.4,228.5z M143.5,228.6
		C143.5,228.6,143.5,228.6,143.5,228.6c-0.1,0-0.3,0-0.4,0C143.3,228.6,143.4,228.6,143.5,228.6z M143.7,228.6L143.7,228.6
		L143.7,228.6L143.7,228.6z M153,225.6c0.3,0.3,0.6,0.8,0.8,1.2c-0.2,0.5-0.4,0.9-0.8,1.2c-0.3,0.3-0.7,0.6-1.1,0.9
		c-0.3-0.6-0.7-1.2-1.3-1.7c-0.1-0.1-0.3-0.2-0.4-0.4c0.2-0.1,0.3-0.2,0.4-0.4c0.6-0.5,1-1.1,1.3-1.7
		C152.3,224.9,152.7,225.2,153,225.6z M143.5,225L143.5,225c-0.1,0-0.3,0-0.4,0C143.3,225,143.4,225,143.5,225L143.5,225z
		 M142.7,224.8L142.7,224.8C142.7,224.8,142.7,224.8,142.7,224.8C142.7,224.8,142.7,224.8,142.7,224.8L142.7,224.8z M141,222.5
		c0,0.4-0.3,0.8-0.2,1.2c0.1,0.4,0,0.8,0.1,1.1c-0.1-0.3,0.1-0.6,0-1.1C140.8,223.3,141,222.9,141,222.5
		C141,222.5,141,222.5,141,222.5z M139.5,224.9L139.5,224.9c-0.4-0.2-0.7-0.4-1.1-0.6c-0.7-0.3-1.3-0.5-1.9-0.7
		c-0.7-0.1-1.4-0.2-2-0.2c-0.5,0-0.9,0.1-1.4,0.2c-0.4,0.1-0.9,0.3-1.3,0.5l-0.1,0l0-0.1c-0.1-0.2-0.1-0.4-0.1-0.5
		c0-0.1,0-0.2,0-0.2c0,0.1,0,0.2,0,0.2c0,0.2,0,0.3,0.1,0.5l0,0.1l0.1,0c0.4-0.2,0.9-0.4,1.3-0.5c0.4-0.1,0.9-0.2,1.4-0.2
		c0.6,0,1.3,0.1,2,0.2c0.7,0.1,1.3,0.4,1.9,0.7C138.8,224.4,139.1,224.6,139.5,224.9L139.5,224.9L139.5,224.9L139.5,224.9z
		 M139.9,228.6L139.9,228.6L139.9,228.6c0.1,0,0.3,0,0.4,0C140.1,228.6,140,228.6,139.9,228.6z M140.7,228.7L140.7,228.7
		c0,0.1,0,0.1,0,0.1C140.7,228.8,140.7,228.8,140.7,228.7L140.7,228.7z M140.7,232.6c-0.2-0.4-0.4-0.9-0.4-1.5c0,0,0,0,0,0
		C140.4,231.7,140.5,232.2,140.7,232.6c0.2,0.3,0.3,0.4,0.6,0.5c0.1,0,0.2,0.1,0.4,0.1c-0.1,0-0.3,0-0.4-0.1
		C141.1,233,140.9,232.9,140.7,232.6z M143,231.1c0-0.4,0-0.8-0.1-1.2c-0.1-0.4-0.1-0.8-0.2-1.1c0.1,0.3,0.1,0.7,0.2,1.1
		C143,230.3,143,230.6,143,231.1L143,231.1z M150.5,227.3c-0.2-0.1-0.3-0.3-0.5-0.4l-0.1-0.1l0.1-0.1c0.2-0.1,0.4-0.3,0.5-0.4
		c0.3-0.3,0.5-0.5,0.8-0.8c0.2-0.2,0.3-0.4,0.4-0.7c-0.1,0.2-0.3,0.5-0.4,0.7c-0.2,0.3-0.5,0.6-0.8,0.8c-0.2,0.1-0.3,0.3-0.5,0.4
		l-0.1,0.1l0.1,0.1C150.2,227,150.4,227.1,150.5,227.3c0.6,0.5,1,1.1,1.3,1.7l0,0l0,0l0,0C151.6,228.3,151.1,227.8,150.5,227.3z
		 M146.8,232.4L146.8,232.4L146.8,232.4L146.8,232.4c0-0.1,0-0.1,0-0.2C146.8,232.3,146.8,232.4,146.8,232.4z M147.4,221.9
		c0.1,0.1,0.2,0.2,0.3,0.3c0.1,0,0.1,0.1,0.2,0.1c-0.1,0-0.1-0.1-0.2-0.1C147.5,222.1,147.4,222,147.4,221.9
		c-0.1-0.2-0.1-0.4-0.1-0.6C147.2,221.5,147.3,221.7,147.4,221.9z M144.9,224.2c0.6-0.3,1.3-0.5,2-0.7c0.7-0.1,1.3-0.2,2-0.2
		c0.5,0,0.9,0.1,1.4,0.2c0.4,0.1,0.9,0.3,1.3,0.5c0.1-0.2,0.1-0.3,0.1-0.5c0-0.1,0-0.3,0-0.5l0,0c0,0.2,0,0.3,0,0.5
		c0,0.2,0,0.3-0.1,0.5c-0.4-0.2-0.9-0.4-1.3-0.5c-0.5-0.1-0.9-0.2-1.4-0.2c-0.7,0-1.3,0.1-2,0.2
		C146.2,223.7,145.6,223.9,144.9,224.2c-0.4,0.2-0.7,0.3-1,0.6C144.2,224.5,144.6,224.4,144.9,224.2z M143,223.6
		c0.1-0.4,0.1-0.7,0.1-1.1c0,0,0,0,0,0C143.1,222.9,143.1,223.3,143,223.6z M140.5,220.9c0.2-0.3,0.5-0.4,0.7-0.5
		c0.1,0,0.3-0.1,0.4-0.1c-0.1,0-0.3,0-0.4,0.1C141,220.5,140.7,220.6,140.5,220.9c-0.3,0.4-0.5,0.9-0.5,1.6c0,0,0,0,0,0
		C140,221.8,140.3,221.3,140.5,220.9z M140.4,223.6C140.4,223.6,140.4,223.6,140.4,223.6C140.4,223.6,140.4,223.6,140.4,223.6
		c0.1,0.4,0.1,0.8,0.2,1.1C140.5,224.4,140.4,224,140.4,223.6z M135.3,220c-0.5-0.3-1.1-0.2-1.7-0.1c-0.2,0-0.3,0.1-0.5,0.2
		c-0.3,0.2-0.6,0.4-0.9,0.7c-0.2,0.3-0.4,0.6-0.5,1c-0.1,0.4-0.2,0.8-0.2,1.2l0,0c0-0.4,0.1-0.8,0.2-1.2c0.1-0.4,0.3-0.7,0.5-1
		c0.2-0.3,0.5-0.5,0.9-0.7c0.2-0.1,0.3-0.1,0.5-0.2C134.2,219.8,134.8,219.7,135.3,220c0.4,0.2,0.8,0.7,0.8,1.3
		C136.1,220.7,135.7,220.2,135.3,220z M138.5,229.4c-0.6,0.3-1.3,0.5-2,0.7c-0.7,0.1-1.3,0.2-2,0.2c-0.5,0-0.9-0.1-1.4-0.2
		c-0.5-0.1-0.9-0.3-1.3-0.5c-0.1,0.2-0.1,0.3-0.1,0.5c0,0.1,0,0.3,0,0.5l0,0c0-0.2,0-0.3,0-0.5c0-0.2,0-0.3,0.1-0.5
		c0.4,0.2,0.9,0.4,1.3,0.5c0.4,0.1,0.9,0.2,1.4,0.2c0.7,0,1.3-0.1,2-0.2C137.2,229.9,137.8,229.6,138.5,229.4c0.4-0.2,0.7-0.3,1-0.6
		C139.2,229,138.8,229.2,138.5,229.4z M140.5,229.9c0,0.4-0.1,0.7-0.1,1.1c0,0,0,0,0,0C140.4,230.7,140.5,230.3,140.5,229.9z
		 M142.7,232.7c-0.2,0.3-0.3,0.4-0.6,0.5c-0.1,0-0.2,0.1-0.4,0.1c0.1,0,0.3,0,0.4-0.1C142.4,233.1,142.5,232.9,142.7,232.7
		c0.2-0.4,0.3-0.9,0.3-1.6c0,0,0,0,0,0C143,231.8,142.9,232.3,142.7,232.7z M143,229.9C143,229.9,143,229.9,143,229.9
		C143,229.9,143,229.9,143,229.9c-0.1-0.4-0.1-0.8-0.2-1.1C142.9,229.1,143,229.6,143,229.9z M143.9,229L143.9,229l0-0.1
		c0.3,0.2,0.7,0.3,1,0.5c0.7,0.3,1.3,0.5,1.9,0.6c0.7,0.1,1.4,0.2,2,0.2c0.5,0,0.9-0.1,1.4-0.2c0.4-0.1,0.9-0.3,1.3-0.5l0.1,0l0,0.1
		c0.1,0.2,0.1,0.3,0.1,0.5c0,0.1,0,0.3,0,0.5c0-0.2,0-0.3,0-0.5c0-0.2,0-0.3-0.1-0.5l0-0.1l-0.1,0c-0.4,0.2-0.9,0.4-1.3,0.5
		c-0.4,0.1-0.9,0.2-1.4,0.2c-0.6,0-1.3-0.1-2-0.2c-0.7-0.1-1.3-0.4-1.9-0.7c-0.3-0.2-0.7-0.4-1-0.6l0,0.1L143.9,229z M151.7,230.9
		c0,0.3,0,0.6-0.1,0.9C151.7,231.4,151.7,231.2,151.7,230.9z M150.7,232.4c0.1,0,0.1-0.1,0.2-0.2c0.1-0.1,0.3-0.1,0.4-0.2
		c0.2-0.1,0.3-0.3,0.2-0.5l0,0c0.1,0.2-0.1,0.4-0.2,0.5c-0.1,0.1-0.3,0.1-0.4,0.2C150.9,232.3,150.8,232.4,150.7,232.4
		c0.1,0.1,0.2,0.2,0.4,0.2C151,232.6,150.8,232.5,150.7,232.4z M150.7,232.7c0.2,0,0.4,0,0.5-0.1c0,0,0,0,0,0h0c0,0,0,0,0,0
		C151.1,232.7,150.8,232.7,150.7,232.7c-0.1,0-0.5,0-0.5,0.1l0,0C150.2,232.8,150.6,232.8,150.7,232.7z M149.4,232.6
		c0,0,0.1,0,0.1,0C149.5,232.6,149.5,232.6,149.4,232.6c0,0-0.2,0.1-0.2,0.1C149.3,232.7,149.4,232.6,149.4,232.6z"/>
</g>
<g id="XMLID_292_">
	<path id="XMLID_364_" class="st0" d="M126,55.9c-2.2,0-4.4,0-6.5,0c-4.3,0-8.4,0.1-12.3,0.1c-3.9,0-7.6,0.1-11,0.2
		c-1.7,0-3.3,0.1-4.9,0.1c-1.6,0-3,0.1-4.4,0.1c-2.8,0.1-5.2,0.1-7.2,0.2c-2,0-2,0.3,0,0.4c2,0,4.4,0.1,7.2,0.2
		c1.4,0,2.9,0.1,4.4,0.1c1.6,0,3.2,0.1,4.9,0.1c3.4,0.1,7.1,0.1,11,0.2c3.9,0,8,0.1,12.3,0.1c2.1,0,4.3,0,6.5,0c0.9,0,1.9,0,2.9,0
		c-0.1-0.1-0.4-0.5-0.4-0.9c0-0.4,0.3-0.7,0.4-0.9C127.9,55.9,126.9,55.9,126,55.9z"/>
	<path id="XMLID_363_" class="st0" d="M203.5,56.6c-2-0.1-4.4-0.1-7.2-0.2c-1.4,0-2.9-0.1-4.4-0.1c-1.6,0-3.2-0.1-4.9-0.1
		c-3.4-0.1-7.1-0.1-11-0.2c-3.9,0-8-0.1-12.3-0.1c-2.1,0-4.3,0-6.5,0c-0.9,0-1.9,0-2.9,0c0.1,0.1,0.4,0.5,0.4,0.9
		c0,0.4-0.3,0.7-0.4,0.9c1,0,1.9,0,2.9,0c2.2,0,4.4,0,6.5,0c4.3,0,8.4-0.1,12.3-0.1c3.9,0,7.6-0.1,11-0.2c1.7,0,3.3-0.1,4.9-0.1
		c1.6,0,3-0.1,4.4-0.1c2.8-0.1,5.2-0.1,7.2-0.2C205.5,56.9,205.5,56.6,203.5,56.6z"/>
	<path id="XMLID_293_" class="st0" d="M154.1,56.7c-0.2-0.5-0.4-1-0.8-1.4c-0.3-0.4-0.8-0.8-1.2-1.1c0.1-0.2,0.1-0.4,0.1-0.6
		c0-0.2,0-0.4,0-0.6c0-1.1-0.3-2-0.9-2.6c-0.6-0.6-1.3-0.9-2.1-0.9c-0.3,0-0.6,0-0.9,0c-0.7,0.1-1.2,0.6-1.5,1.2
		c-0.1,0.4-0.1,0.7,0,1.1c0.1,0.2,0.3,0.6,0.8,0.8c0.3,0.1,0.7,0.1,1,0c0.2-0.1,0.6-0.3,0.7-0.8c0-0.2-0.1-0.5-0.3-0.7
		c-0.2-0.2-0.4-0.3-0.7-0.2c-0.2,0.1-0.5,0.3-0.4,0.6c0,0.2,0.2,0.3,0.3,0.3c0.1,0,0.2,0,0.2-0.1c0,0,0-0.1,0-0.1
		c0,0-0.1-0.1-0.1-0.1c0,0-0.1,0-0.1,0.1c0,0,0,0,0,0c0,0,0,0-0.1,0c0-0.1,0-0.1,0-0.2c0.1-0.1,0.3-0.2,0.4-0.1
		c0.2,0.1,0.3,0.3,0.3,0.6c0,0.1-0.1,0.3-0.2,0.3c-0.1,0.1-0.3,0.2-0.4,0.2c-0.4,0-0.8-0.2-0.9-0.5c-0.2-0.4-0.1-0.7-0.1-0.9
		c0.1-0.4,0.4-0.7,0.7-0.9c0.3-0.1,0.6-0.2,0.9-0.2c0.3,0,0.6,0.1,0.9,0.1c0.1,0,0.3,0.1,0.4,0.1c0.3,0.2,0.6,0.4,0.8,0.7
		c0.2,0.3,0.4,0.6,0.5,1c0.1,0.4,0.1,0.8,0.1,1.2c0,0.2,0,0.3,0,0.5c0,0.1,0,0.3-0.1,0.4c-0.4-0.2-0.8-0.3-1.2-0.4
		c-0.4-0.1-0.9-0.2-1.4-0.2c-0.6,0-1.3,0.1-2,0.2c-0.7,0.1-1.3,0.4-2,0.7c-0.3,0.2-0.7,0.5-1,0.7c-0.2,0-0.4,0.1-0.6,0.1h-0.4
		c0.1,0,0.1-0.8,0.2-1.2c0.1-0.4,0.1-0.8,0.1-1.3c0-0.7-0.1-1.2-0.4-1.6c-0.2-0.3-0.4-0.5-0.7-0.6c-0.1,0-0.3-0.1-0.4-0.1
		c-0.2,0-0.3,0-0.4,0.1c-0.3,0.1-0.5,0.3-0.7,0.6c-0.3,0.4-0.4,1-0.4,1.6c0,0.4,0,0.9,0.1,1.3c0.1,0.4,0.1,1.2,0.2,1.2h-0.4
		c-0.2,0-0.4-0.1-0.6-0.1c-0.3-0.2-0.7-0.5-1-0.6c-0.7-0.3-1.3-0.6-2-0.7c-0.7-0.1-1.4-0.2-2-0.2c-0.5,0-1,0-1.4,0.2
		c-0.4,0.1-0.8,0.2-1.3,0.4c0-0.1-0.1-0.3-0.1-0.4c0-0.1,0-0.3,0-0.5c0-0.4,0-0.8,0.1-1.2c0.1-0.4,0.2-0.7,0.4-1
		c0.2-0.3,0.5-0.5,0.8-0.7c0.1-0.1,0.3-0.1,0.5-0.2c0.3,0,0.5-0.1,0.7-0.1c0.3,0,0.6,0.1,0.9,0.2c0.3,0.2,0.6,0.5,0.7,0.9
		c0.1,0.2,0.1,0.6-0.1,0.9c-0.1,0.3-0.5,0.5-0.9,0.5c-0.2,0-0.4-0.1-0.4-0.2c-0.1-0.1-0.2-0.2-0.2-0.3c0-0.2,0.1-0.5,0.3-0.6
		c0.1,0,0.3,0,0.4,0.1c0,0.1,0,0.1,0,0.2c0,0,0,0-0.1,0c0,0,0,0,0,0c0,0-0.1-0.1-0.1-0.1c0,0-0.1,0-0.1,0.1c0,0,0,0.1,0,0.1
		c0,0.1,0.1,0.1,0.2,0.1c0.1,0,0.3-0.1,0.3-0.3c0.1-0.3-0.2-0.5-0.4-0.6c-0.3-0.1-0.5,0-0.7,0.2c-0.2,0.2-0.3,0.5-0.3,0.7
		c0.1,0.5,0.4,0.7,0.7,0.8c0.3,0.1,0.7,0.1,1,0c0.5-0.2,0.7-0.6,0.8-0.8c0.1-0.3,0.1-0.7,0-1.1c-0.2-0.6-0.8-1.1-1.5-1.2
		c-0.3-0.1-0.6-0.1-0.8,0c-0.8,0.1-1.5,0.4-2.1,1c-0.6,0.6-0.9,1.5-0.9,2.6c0,0.2,0,0.4,0,0.6c0,0.2,0.1,0.4,0.1,0.6
		c-0.5,0.3-0.9,0.7-1.2,1.1c-0.4,0.5-0.6,0.9-0.8,1.4l0,0c0,0,0,0,0,0c0,0,0,0,0,0.1l0,0c0.1,0.5,0.4,1,0.8,1.4
		c0.3,0.4,0.8,0.8,1.2,1.1c-0.1,0.2-0.1,0.4-0.1,0.6c0,0.2,0,0.4,0,0.6c0,1.1,0.3,2,0.9,2.6c0.1,0.1,0.2,0.2,0.3,0.2l0.1,0.1l0,0
		l0.3,0.2c0.2,0.1,0.3,0.2,0.5,0.3l-0.1,0l0.2,0.1h0l0.2,0.1c0,0,0,0,0,0l0,0l0,0l0.2,0c0,0,0,0,0,0l0.1,0l0,0
		c0.2,0,0.3,0.1,0.5,0.1c0.2,0,0.3,0,0.3,0l-0.1,0.1l0.5-0.2c0,0,0,0,0,0l0,0c1.3-0.5,1.5-1.5,1.5-1.6l0,0l0,0c0-0.3,0-0.6-0.2-0.9
		c-0.2-0.2-0.5-0.5-0.9-0.5c-0.1,0-0.3,0.1-0.4,0.3c0,0.1,0,0.2,0,0.2c0,0.1,0.1,0.1,0.2,0l0,0l0,0c0-0.1,0.1-0.2,0.2-0.2
		c0,0,0.1,0,0.1,0.1c0,0.1,0,0.3-0.1,0.3c-0.1,0.1-0.2,0.1-0.3,0.2c-0.1,0.1-0.2,0.1-0.3,0.2c-0.2,0.2-0.3,0.4-0.2,0.7
		c-0.1,0-0.2,0.1-0.3,0.3c0-0.1,0.1-0.3,0-0.4c0-0.1-0.1-0.2-0.3-0.2c0,0-0.1,0-0.1,0c0,0-0.1,0-0.1,0.1c0,0,0,0,0,0c0,0,0,0,0,0
		c-0.1,0-0.1,0-0.1,0c-0.3,0-0.5,0.1-0.8,0.2c-0.1-0.1-0.2-0.1-0.4-0.1l0,0c-0.1,0-0.1,0-0.2,0c0.1,0,0.2-0.1,0.2-0.2l0.1-0.1
		l-0.1,0c-0.1,0-0.1-0.1-0.1-0.1c0,0-0.1-0.1-0.1-0.1c-0.1-0.1-0.2-0.1-0.2-0.2c-0.1,0-0.1,0-0.1-0.1c-0.1,0-0.1-0.1-0.1-0.1
		c0,0,0,0,0,0c0,0,0,0,0,0c0-0.1,0-0.1,0-0.2l0.1-0.1l-0.1,0c0-0.3-0.1-0.6-0.1-0.8c0-0.2,0-0.3,0-0.5c0-0.1,0-0.3,0.1-0.4
		c0.4,0.2,0.8,0.3,1.3,0.4c0.4,0.1,0.9,0.2,1.4,0.2c0.6,0,1.3-0.1,2-0.2c0.7-0.1,1.3-0.4,2-0.7c0.3-0.2,0.7-0.3,1-0.5
		c0.2,0,0.4,0.1,0.6,0.1l0,0l0,0h0.4c-0.1,0-0.2,0.5-0.2,1c0,0.4-0.1,0.8-0.1,1.2c0,0.7,0.1,1.2,0.4,1.6c0.2,0.3,0.4,0.5,0.7,0.6
		c0.1,0,0.3,0.1,0.4,0.1c0.2,0,0.3,0,0.4-0.1c0.3-0.1,0.5-0.3,0.7-0.6c0.3-0.4,0.4-0.9,0.4-1.6c0-0.5,0-0.8-0.1-1.1
		c-0.1-0.4-0.1-1-0.2-1h0.4l0,0l0,0l0,0c0.2,0,0.4-0.1,0.6-0.1l0,0c-0.2,0-0.4,0-0.6,0c0.2,0,0.4,0,0.6,0c0.3,0.2,0.7,0.4,1,0.6
		c0.7,0.3,1.3,0.5,2,0.7c0.7,0.1,1.4,0.2,2,0.2c0.5,0,1-0.1,1.4-0.2c0.4-0.1,0.8-0.3,1.2-0.4c0,0.1,0.1,0.3,0.1,0.4
		c0,0.1,0,0.3,0,0.5c0,0.3,0,0.6-0.1,0.9l-0.2,0l0.1,0.1c0.1,0.2-0.1,0.3-0.2,0.4c0,0-0.1,0.1-0.1,0.1c-0.1,0-0.2,0.1-0.2,0.2
		c0,0-0.1,0.1-0.1,0.1c0,0-0.1,0.1-0.1,0.1l-0.1,0l0.1,0.1c0.1,0.1,0.2,0.1,0.2,0.2c-0.1,0-0.1,0-0.2,0l0,0c-0.2,0-0.4,0.1-0.4,0.1
		c-0.3-0.2-0.6-0.3-0.8-0.2c0,0-0.1,0-0.1,0c0,0,0,0,0,0c0,0,0,0,0,0c0-0.1-0.1-0.1-0.1-0.1c0,0-0.1,0-0.1,0c-0.1,0-0.2,0.1-0.3,0.2
		c0,0.1,0,0.3,0,0.4c-0.1-0.1-0.2-0.2-0.3-0.3c0-0.2,0-0.5-0.2-0.7c-0.1-0.1-0.2-0.1-0.3-0.2c-0.1-0.1-0.2-0.1-0.3-0.2
		c-0.1-0.1-0.1-0.2-0.1-0.3c0,0,0-0.1,0.1-0.1c0.1,0,0.1,0.1,0.2,0.2l0,0l0,0c0.1,0,0.2,0,0.2,0c0-0.1,0-0.1,0-0.2
		c-0.1-0.1-0.3-0.3-0.4-0.3c-0.4,0-0.7,0.2-0.9,0.5c-0.2,0.3-0.2,0.6-0.2,0.9l0,0l0,0c0,0,0.2,1.1,1.5,1.6l0,0c0,0,0,0,0,0l0.6,0.2
		l-0.1-0.1c0.1,0,0.4,0,0.5,0c0.2,0,0.8,0,0.8-0.1v0l-0.4-0.1h0l0.2,0l0,0l0,0c0,0,0,0,0,0l0,0h0l0,0c0,0,0,0,0,0l0.2-0.1h0
		c0.2,0,0.4-0.2,0.5-0.3l0.1-0.1c0.2-0.1,0.4-0.3,0.5-0.4c0.6-0.6,0.9-1.5,0.9-2.6c0-0.2,0-0.4,0-0.6c0-0.2-0.1-0.4-0.1-0.6
		c0.5-0.3,0.9-0.7,1.2-1.1c0.4-0.4,0.6-0.9,0.8-1.4l0,0C154.1,56.8,154.1,56.8,154.1,56.7C154.1,56.8,154.1,56.8,154.1,56.7
		L154.1,56.7z M149.6,64c-0.2,0-0.4,0.1-0.5,0.1c-0.2,0-0.3,0-0.3,0c-0.1,0-0.3-0.1-0.4-0.1l0,0l0,0c-1.2-0.4-1.4-1.3-1.4-1.4l0,0
		c0,0.1,0.3,1,1.4,1.4l0,0l0,0c0.1,0,0.3,0.1,0.4,0.1c0,0,0.1,0,0.3,0C149.2,64.1,149.4,64,149.6,64L149.6,64L149.6,64L149.6,64
		L149.6,64z M131.8,61.5C131.8,61.5,131.8,61.5,131.8,61.5L131.8,61.5C131.8,61.5,131.8,61.5,131.8,61.5L131.8,61.5z M142.7,50.9
		c0.2,0.4,0.4,0.9,0.4,1.5v0C143.1,51.8,142.9,51.3,142.7,50.9c-0.2-0.3-0.4-0.4-0.6-0.5c-0.1,0-0.2-0.1-0.4-0.1
		c0.1,0,0.3,0,0.4,0.1C142.3,50.5,142.5,50.7,142.7,50.9z M139.7,58.6L139.7,58.6l0.2-0.1c0,0,0.1-0.1,0.1-0.1c0,0-0.1,0.1-0.1,0.1
		L139.7,58.6z M143.7,55L143.7,55l-0.2,0.1c0,0-0.1,0.1-0.1,0.1c0,0,0.1-0.1,0.1-0.1L143.7,55z M142.9,61c0,0.7-0.1,1.2-0.4,1.5
		c-0.1,0.2-0.3,0.3-0.4,0.4c-0.1,0.1-0.3,0.1-0.4,0.1c-0.1,0-0.3,0-0.4-0.1c-0.2-0.1-0.3-0.2-0.4-0.4c-0.3-0.3-0.4-0.8-0.4-1.5l0,0
		c0,0.7,0.1,1.2,0.4,1.5c0.1,0.2,0.3,0.3,0.4,0.4c0.1,0.1,0.3,0.1,0.4,0.1c0.1,0,0.3,0,0.4-0.1c0.2-0.1,0.3-0.2,0.4-0.4
		C142.8,62.2,142.9,61.7,142.9,61L142.9,61z M148.6,55.8c-0.8-0.4-1.6-0.6-2.5-0.8c-0.4-0.1-0.9-0.2-1.3-0.2c0,0,0,0,0,0
		c1.2-0.6,2.5-0.9,4.2-0.9c0.8,0,1.6,0.2,2.5,0.5c-0.3,0.6-0.7,1.2-1.3,1.7c-0.1,0.1-0.3,0.3-0.5,0.4C149.3,56.2,149,56,148.6,55.8z
		 M140.9,51.1c0.2-0.2,0.3-0.3,0.4-0.3c0.2-0.1,0.5-0.1,0.7,0c0.1,0.1,0.3,0.2,0.4,0.3c0.3,0.3,0.4,0.8,0.4,1.4c0,0.4,0,0.7-0.1,1.1
		c-0.1,0.3-0.2,0.7-0.3,1c-0.1,0-0.2,0-0.4,0c-0.1,0-0.3,0-0.4,0l0,0c-0.1,0-0.2,0-0.3,0c0,0,0,0,0,0c0,0,0,0,0,0
		c-0.1,0-0.2,0-0.3,0c-0.1-0.4-0.2-0.7-0.3-1c-0.1-0.4-0.1-0.7-0.1-1.1C140.5,51.9,140.7,51.4,140.9,51.1z M141.6,54.8L141.6,54.8
		c0.2,0,0.3,0,0.4,0C141.9,54.9,141.8,54.9,141.6,54.8L141.6,54.8L141.6,54.8L141.6,54.8z M141.7,58.4c-0.1,0-0.3,0-0.4,0
		c-0.1,0-0.1,0-0.2,0c0.1-0.2,0.1-0.3,0.2-0.5c0.1-0.2,0.2-0.4,0.3-0.5c0.1,0.2,0.2,0.3,0.3,0.5c0.1,0.2,0.2,0.3,0.2,0.5l0,0
		c0,0-0.1,0-0.1,0C142,58.4,141.8,58.4,141.7,58.4z M141,57.7c-0.1,0.2-0.2,0.4-0.3,0.6c-0.1,0-0.2,0-0.3-0.1
		C140.6,58.1,140.8,57.9,141,57.7z M141.3,56.8L141.3,56.8L141.3,56.8c-0.4,0.5-0.9,1-1.4,1.4c-1.2-0.3-2.4-0.7-3.5-1.3
		c1.1-0.6,2.2-1.1,3.5-1.3C140.4,55.8,140.9,56.3,141.3,56.8z M141.7,55.1c0.1,0,0.3,0,0.4,0c0.1,0,0.1,0,0.1,0l0,0
		c-0.1,0.2-0.1,0.3-0.2,0.5c-0.1,0.2-0.2,0.4-0.3,0.5c-0.1-0.2-0.2-0.3-0.3-0.5c-0.1-0.1-0.1-0.3-0.2-0.5c0,0,0.1,0,0.2,0
		C141.4,55.1,141.6,55.1,141.7,55.1z M142.4,55.8c0.1-0.2,0.2-0.3,0.2-0.5c0.1,0,0.2,0,0.3,0.1C142.8,55.5,142.6,55.6,142.4,55.8z
		 M143,58.2c-0.1,0-0.2,0-0.3,0.1c-0.1-0.2-0.1-0.4-0.2-0.5C142.6,57.9,142.8,58.1,143,58.2z M140.4,55.3c0.1,0,0.2,0,0.3-0.1
		c0.1,0.2,0.2,0.4,0.3,0.6C140.8,55.7,140.6,55.5,140.4,55.3z M142.2,56.8L142.2,56.8L142.2,56.8c0.4-0.5,0.9-1,1.4-1.4
		c1.2,0.3,2.4,0.7,3.5,1.3c-1.1,0.6-2.2,1.1-3.5,1.3C143,57.7,142.6,57.3,142.2,56.8z M141.6,58.7L141.6,58.7L141.6,58.7
		c-0.1,0-0.2,0-0.3,0c0,0,0,0,0,0c0,0,0,0,0,0C141.4,58.7,141.5,58.7,141.6,58.7z M140.6,59.9c0.1-0.3,0.2-0.7,0.3-1
		c0.1,0,0.2,0,0.3,0c0,0,0,0,0,0c0.1,0,0.2,0,0.3,0l0,0c0.1,0,0.3,0,0.4,0c0.1,0,0.3,0,0.4,0c0.1,0.4,0.2,0.7,0.3,1
		c0.1,0.3,0.1,0.7,0.1,1.1c0,0.7-0.1,1.2-0.4,1.5c-0.1,0.2-0.3,0.3-0.4,0.3c-0.3,0.1-0.5,0.1-0.7,0c-0.1-0.1-0.3-0.2-0.4-0.3
		c-0.2-0.3-0.4-0.8-0.4-1.5C140.5,60.7,140.6,60.3,140.6,59.9z M142.8,59.9c-0.1-0.4-0.2-0.8-0.3-1.1
		C142.7,59.1,142.8,59.5,142.8,59.9c0.1,0.3,0.1,0.7,0.1,1.1C142.9,60.6,142.9,60.3,142.8,59.9z M142.5,54.7
		c0.1-0.4,0.3-0.7,0.3-1.1c0.1-0.4,0.1-0.7,0.1-1.1c0,0,0,0,0,0c0,0.4-0.1,0.7-0.1,1.1C142.8,54,142.7,54.4,142.5,54.7z M140.5,52.6
		c0,0,0,0.1,0,0.1C140.5,52.6,140.5,52.6,140.5,52.6L140.5,52.6z M141.3,54.8C141.3,54.8,141.3,54.8,141.3,54.8
		C141.3,54.8,141.3,54.8,141.3,54.8c-0.1,0-0.3,0-0.4,0C141,54.8,141.1,54.8,141.3,54.8z M140,55.2L140,55.2L140,55.2
		c-0.1,0-0.1,0-0.1-0.1C139.9,55.1,139.9,55.2,140,55.2L140,55.2L140,55.2c0.1,0,0.3-0.1,0.5-0.1C140.3,55.1,140.2,55.2,140,55.2z
		 M133.3,57.5c0.1-0.1,0.3-0.3,0.5-0.4c0.3,0.2,0.7,0.4,1.1,0.6c0.8,0.4,1.6,0.6,2.5,0.8c0.4,0.1,0.9,0.2,1.4,0.2c0,0,0,0,0,0
		c-1.2,0.6-2.6,0.9-4.2,0.9c-0.8,0-1.6-0.2-2.5-0.5C132.3,58.6,132.7,58,133.3,57.5z M137.4,55c-0.9,0.2-1.7,0.5-2.5,0.8
		c-0.4,0.2-0.8,0.4-1.1,0.6c-0.2-0.1-0.3-0.2-0.5-0.4c-0.6-0.5-1-1.1-1.3-1.7c0.8-0.3,1.7-0.5,2.5-0.5c1.6,0,3,0.3,4.2,0.9
		c0,0,0,0,0,0C138.3,54.8,137.8,54.9,137.4,55z M137.8,58.2c-0.9-0.2-1.7-0.5-2.5-0.8c-0.4-0.2-0.7-0.4-1.1-0.6
		c0.3-0.2,0.7-0.4,1.1-0.6c0.8-0.4,1.6-0.6,2.5-0.8c0.5-0.1,1.1-0.2,1.6-0.2c0,0,0.1,0,0.1,0.1c-0.6,0.2-1.1,0.3-1.7,0.6
		c-0.6,0.2-1.2,0.5-1.7,0.9c-0.2-0.1-0.3-0.2-0.5-0.3c0,0,0,0-0.1,0c0,0-0.1,0-0.1,0.1c0,0.1,0,0.1,0.1,0.2c0.1,0.1,0.2,0.1,0.3,0.2
		c-0.1,0.1-0.2,0.1-0.3,0.2c-0.1,0.1-0.1,0.1-0.1,0.2c0,0.1,0.1,0.1,0.1,0.1c0,0,0,0,0.1,0c0.1-0.1,0.3-0.2,0.4-0.3
		c0.5,0.3,1.1,0.6,1.7,0.9c0.5,0.2,1.1,0.4,1.7,0.6c0,0-0.1,0-0.1,0.1C138.8,58.4,138.3,58.3,137.8,58.2z M133.2,56.8
		c-0.2,0.1-0.3,0.2-0.4,0.4c-0.6,0.5-1,1.1-1.3,1.7c-0.4-0.2-0.8-0.5-1.1-0.9c-0.3-0.3-0.6-0.8-0.8-1.2c0.2-0.5,0.4-0.9,0.8-1.2
		c0.3-0.3,0.7-0.6,1.1-0.9c0.3,0.6,0.7,1.2,1.3,1.7C132.9,56.5,133.1,56.7,133.2,56.8z M142.1,58.7c-0.1,0-0.2,0-0.3,0
		C141.9,58.7,142,58.7,142.1,58.7c0.2,0,0.3,0,0.4,0C142.4,58.7,142.3,58.7,142.1,58.7z M143.4,58.4L143.4,58.4L143.4,58.4
		c0.1,0,0.1,0,0.1,0.1C143.5,58.4,143.5,58.4,143.4,58.4L143.4,58.4L143.4,58.4c-0.1,0-0.3,0.1-0.5,0.1
		C143.1,58.4,143.2,58.4,143.4,58.4z M145.6,57.8c0.6-0.2,1.2-0.5,1.7-0.9c0.2,0.1,0.3,0.2,0.5,0.3c0.1,0,0.1,0,0.2-0.1
		c0-0.1,0-0.1-0.1-0.2c-0.1-0.1-0.2-0.1-0.3-0.2c0.1-0.1,0.2-0.1,0.3-0.2c0.1-0.1,0.1-0.1,0.1-0.2c0-0.1-0.1-0.1-0.2-0.1
		c-0.1,0.1-0.3,0.2-0.4,0.3c-0.5-0.3-1.1-0.6-1.7-0.9c-0.5-0.2-1.1-0.4-1.7-0.6c0,0,0.1,0,0.1-0.1c0.5,0,1,0.1,1.6,0.2
		c0.9,0.2,1.7,0.5,2.5,0.8c0.4,0.2,0.7,0.4,1.1,0.6c-0.3,0.2-0.7,0.4-1.1,0.6c-0.8,0.4-1.6,0.6-2.5,0.8c-0.5,0.1-1.1,0.2-1.6,0.2
		c0,0-0.1,0-0.1-0.1C144.5,58.2,145.1,58,145.6,57.8z M146,58.6c0.9-0.2,1.8-0.5,2.5-0.8c0.4-0.2,0.8-0.4,1.1-0.6
		c0.2,0.1,0.3,0.3,0.5,0.4c0.6,0.5,1,1.1,1.3,1.7c-0.8,0.3-1.7,0.5-2.5,0.5c-1.6,0-3-0.3-4.2-0.9c0,0,0,0,0,0
		C145.1,58.7,145.6,58.7,146,58.6z M142.9,55.1C142.9,55.1,143,55.1,142.9,55.1C143,55.1,142.9,55.1,142.9,55.1l-0.6-0.1L142.9,55.1
		z M143,52.6c0-0.7-0.1-1.2-0.4-1.5c-0.1-0.2-0.3-0.3-0.5-0.4c-0.3-0.2-0.6-0.1-0.9,0c-0.2,0.1-0.3,0.2-0.5,0.4
		c-0.3,0.3-0.4,0.8-0.4,1.5l0,0c0-0.7,0.1-1.2,0.4-1.5c0.2-0.2,0.3-0.3,0.5-0.4c0.3-0.1,0.6-0.2,0.9,0c0.2,0.1,0.3,0.2,0.5,0.4
		C142.9,51.3,143,51.8,143,52.6C143,52.6,143,52.6,143,52.6z M140,55.1C140,55.1,140,55.1,140,55.1C140,55.1,140,55.1,140,55.1
		c0.2,0,0.3-0.1,0.5-0.1C140.3,55,140.2,55.1,140,55.1z M139.9,55C139.9,55,139.9,55,139.9,55c0.1,0,0.3,0,0.4,0
		C140.1,55,140,55,139.9,55z M139.7,55L139.7,55L139.7,55L139.7,55z M140.5,58.5C140.5,58.5,140.5,58.5,140.5,58.5
		C140.5,58.5,140.5,58.5,140.5,58.5l0.6,0.1L140.5,58.5z M140.4,61c0,0.7,0.1,1.2,0.4,1.5c0.2,0.2,0.3,0.3,0.5,0.4
		c0.1,0.1,0.3,0.1,0.4,0.1c0.1,0,0.3,0,0.4-0.1c0.2-0.1,0.3-0.2,0.5-0.4c0.3-0.3,0.4-0.8,0.4-1.5l0,0c0,0.7-0.1,1.2-0.4,1.5
		c-0.1,0.2-0.3,0.3-0.5,0.4c-0.1,0.1-0.3,0.1-0.4,0.1c-0.1,0-0.3,0-0.4-0.1c-0.1-0.1-0.3-0.2-0.5-0.4
		C140.5,62.2,140.4,61.7,140.4,61L140.4,61z M143.4,58.5C143.4,58.5,143.4,58.5,143.4,58.5C143.4,58.5,143.4,58.5,143.4,58.5
		c-0.1,0-0.3,0.1-0.5,0.1C143.1,58.6,143.2,58.5,143.4,58.5z M143.5,58.6C143.5,58.6,143.5,58.6,143.5,58.6c-0.1,0-0.3,0-0.4,0
		C143.3,58.6,143.4,58.6,143.5,58.6z M143.7,58.6L143.7,58.6L143.7,58.6L143.7,58.6z M153,55.6c0.3,0.3,0.6,0.8,0.8,1.2
		c-0.2,0.5-0.4,0.9-0.8,1.2c-0.3,0.3-0.7,0.6-1.1,0.9c-0.3-0.6-0.7-1.2-1.3-1.7c-0.1-0.1-0.3-0.2-0.4-0.4c0.2-0.1,0.3-0.2,0.4-0.4
		c0.6-0.5,1-1.1,1.3-1.7C152.3,54.9,152.7,55.2,153,55.6z M143.5,55L143.5,55c-0.1,0-0.3,0-0.4,0C143.3,55,143.4,55,143.5,55
		L143.5,55z M142.7,54.8L142.7,54.8C142.7,54.8,142.7,54.8,142.7,54.8C142.7,54.8,142.7,54.8,142.7,54.8L142.7,54.8z M141,52.5
		c0,0.4-0.3,0.8-0.2,1.2c0.1,0.4,0,0.8,0.1,1.1c-0.1-0.3,0.1-0.6,0-1.1C140.8,53.3,141,52.9,141,52.5C141,52.5,141,52.5,141,52.5z
		 M139.5,54.9L139.5,54.9c-0.4-0.2-0.7-0.4-1.1-0.6c-0.7-0.3-1.3-0.5-1.9-0.7c-0.7-0.1-1.4-0.2-2-0.2c-0.5,0-0.9,0.1-1.4,0.2
		c-0.4,0.1-0.9,0.3-1.3,0.5l-0.1,0l0-0.1c-0.1-0.2-0.1-0.4-0.1-0.5c0-0.1,0-0.2,0-0.2c0,0.1,0,0.2,0,0.2c0,0.2,0,0.3,0.1,0.5l0,0.1
		l0.1,0c0.4-0.2,0.9-0.4,1.3-0.5c0.4-0.1,0.9-0.2,1.4-0.2c0.6,0,1.3,0.1,2,0.2c0.7,0.1,1.3,0.4,1.9,0.7
		C138.8,54.4,139.1,54.6,139.5,54.9L139.5,54.9L139.5,54.9L139.5,54.9z M139.9,58.6L139.9,58.6L139.9,58.6c0.1,0,0.3,0,0.4,0
		C140.1,58.6,140,58.6,139.9,58.6z M140.7,58.7L140.7,58.7c0,0.1,0,0.1,0,0.1C140.7,58.8,140.7,58.8,140.7,58.7L140.7,58.7z
		 M140.7,62.6c-0.2-0.4-0.4-0.9-0.4-1.5c0,0,0,0,0,0C140.4,61.7,140.5,62.2,140.7,62.6c0.2,0.3,0.3,0.4,0.6,0.5
		c0.1,0,0.2,0.1,0.4,0.1c-0.1,0-0.3,0-0.4-0.1C141.1,63,140.9,62.9,140.7,62.6z M143,61.1c0-0.4,0-0.8-0.1-1.2
		c-0.1-0.4-0.1-0.8-0.2-1.1c0.1,0.3,0.1,0.7,0.2,1.1C143,60.3,143,60.6,143,61.1L143,61.1z M150.5,57.3c-0.2-0.1-0.3-0.3-0.5-0.4
		l-0.1-0.1l0.1-0.1c0.2-0.1,0.4-0.3,0.5-0.4c0.3-0.3,0.5-0.5,0.8-0.8c0.2-0.2,0.3-0.4,0.4-0.7c-0.1,0.2-0.3,0.5-0.4,0.7
		c-0.2,0.3-0.5,0.6-0.8,0.8c-0.2,0.1-0.3,0.3-0.5,0.4l-0.1,0.1l0.1,0.1C150.2,57,150.4,57.1,150.5,57.3c0.6,0.5,1,1.1,1.3,1.7l0,0
		l0,0l0,0C151.6,58.3,151.1,57.8,150.5,57.3z M146.8,62.4L146.8,62.4L146.8,62.4L146.8,62.4c0-0.1,0-0.1,0-0.2
		C146.8,62.3,146.8,62.4,146.8,62.4z M147.4,51.9c0.1,0.1,0.2,0.2,0.3,0.3c0.1,0,0.1,0.1,0.2,0.1c-0.1,0-0.1-0.1-0.2-0.1
		C147.5,52.1,147.4,52,147.4,51.9c-0.1-0.2-0.1-0.4-0.1-0.6C147.2,51.5,147.3,51.7,147.4,51.9z M144.9,54.2c0.6-0.3,1.3-0.5,2-0.7
		c0.7-0.1,1.3-0.2,2-0.2c0.5,0,0.9,0.1,1.4,0.2c0.4,0.1,0.9,0.3,1.3,0.5c0.1-0.2,0.1-0.3,0.1-0.5c0-0.1,0-0.3,0-0.5l0,0
		c0,0.2,0,0.3,0,0.5c0,0.2,0,0.3-0.1,0.5c-0.4-0.2-0.9-0.4-1.3-0.5c-0.5-0.1-0.9-0.2-1.4-0.2c-0.7,0-1.3,0.1-2,0.2
		C146.2,53.7,145.6,53.9,144.9,54.2c-0.4,0.2-0.7,0.3-1,0.6C144.2,54.5,144.6,54.4,144.9,54.2z M143,53.6c0.1-0.4,0.1-0.7,0.1-1.1
		c0,0,0,0,0,0C143.1,52.9,143.1,53.3,143,53.6z M140.5,50.9c0.2-0.3,0.5-0.4,0.7-0.5c0.1,0,0.3-0.1,0.4-0.1c-0.1,0-0.3,0-0.4,0.1
		C141,50.5,140.7,50.6,140.5,50.9c-0.3,0.4-0.5,0.9-0.5,1.6c0,0,0,0,0,0C140,51.8,140.3,51.3,140.5,50.9z M140.4,53.6
		C140.4,53.6,140.4,53.6,140.4,53.6C140.4,53.6,140.4,53.6,140.4,53.6c0.1,0.4,0.1,0.8,0.2,1.1C140.5,54.4,140.4,54,140.4,53.6z
		 M135.3,50c-0.5-0.3-1.1-0.2-1.7-0.1c-0.2,0-0.3,0.1-0.5,0.2c-0.3,0.2-0.6,0.4-0.9,0.7c-0.2,0.3-0.4,0.6-0.5,1
		c-0.1,0.4-0.2,0.8-0.2,1.2l0,0c0-0.4,0.1-0.8,0.2-1.2c0.1-0.4,0.3-0.7,0.5-1c0.2-0.3,0.5-0.5,0.9-0.7c0.2-0.1,0.3-0.1,0.5-0.2
		C134.2,49.8,134.8,49.7,135.3,50c0.4,0.2,0.8,0.7,0.8,1.3C136.1,50.7,135.7,50.2,135.3,50z M138.5,59.4c-0.6,0.3-1.3,0.5-2,0.7
		c-0.7,0.1-1.3,0.2-2,0.2c-0.5,0-0.9-0.1-1.4-0.2c-0.5-0.1-0.9-0.3-1.3-0.5c-0.1,0.2-0.1,0.3-0.1,0.5c0,0.1,0,0.3,0,0.5l0,0
		c0-0.2,0-0.3,0-0.5c0-0.2,0-0.3,0.1-0.5c0.4,0.2,0.9,0.4,1.3,0.5c0.4,0.1,0.9,0.2,1.4,0.2c0.7,0,1.3-0.1,2-0.2
		C137.2,59.9,137.8,59.6,138.5,59.4c0.4-0.2,0.7-0.3,1-0.6C139.2,59,138.8,59.2,138.5,59.4z M140.5,59.9c0,0.4-0.1,0.7-0.1,1.1
		c0,0,0,0,0,0C140.4,60.7,140.5,60.3,140.5,59.9z M142.7,62.7c-0.2,0.3-0.3,0.4-0.6,0.5c-0.1,0-0.2,0.1-0.4,0.1c0.1,0,0.3,0,0.4-0.1
		C142.4,63.1,142.5,62.9,142.7,62.7c0.2-0.4,0.3-0.9,0.3-1.6c0,0,0,0,0,0C143,61.8,142.9,62.3,142.7,62.7z M143,59.9
		C143,59.9,143,59.9,143,59.9C143,59.9,143,59.9,143,59.9c-0.1-0.4-0.1-0.8-0.2-1.1C142.9,59.1,143,59.6,143,59.9z M143.9,59
		L143.9,59l0-0.1c0.3,0.2,0.7,0.3,1,0.5c0.7,0.3,1.3,0.5,1.9,0.6c0.7,0.1,1.4,0.2,2,0.2c0.5,0,0.9-0.1,1.4-0.2
		c0.4-0.1,0.9-0.3,1.3-0.5l0.1,0l0,0.1c0.1,0.2,0.1,0.3,0.1,0.5c0,0.1,0,0.3,0,0.5c0-0.2,0-0.3,0-0.5c0-0.2,0-0.3-0.1-0.5l0-0.1
		l-0.1,0c-0.4,0.2-0.9,0.4-1.3,0.5c-0.4,0.1-0.9,0.2-1.4,0.2c-0.6,0-1.3-0.1-2-0.2c-0.7-0.1-1.3-0.4-1.9-0.7c-0.3-0.2-0.7-0.4-1-0.6
		l0,0.1L143.9,59z M151.7,60.9c0,0.3,0,0.6-0.1,0.9C151.7,61.4,151.7,61.2,151.7,60.9z M150.7,62.4c0.1,0,0.1-0.1,0.2-0.2
		c0.1-0.1,0.3-0.1,0.4-0.2c0.2-0.1,0.3-0.3,0.2-0.5l0,0c0.1,0.2-0.1,0.4-0.2,0.5c-0.1,0.1-0.3,0.1-0.4,0.2
		C150.9,62.3,150.8,62.4,150.7,62.4c0.1,0.1,0.2,0.2,0.4,0.2C151,62.6,150.8,62.5,150.7,62.4z M150.7,62.7c0.2,0,0.4,0,0.5-0.1
		c0,0,0,0,0,0h0c0,0,0,0,0,0C151.1,62.7,150.8,62.7,150.7,62.7c-0.1,0-0.5,0-0.5,0.1l0,0C150.2,62.8,150.6,62.8,150.7,62.7z
		 M149.4,62.6c0,0,0.1,0,0.1,0C149.5,62.6,149.5,62.6,149.4,62.6c0,0-0.2,0.1-0.2,0.1C149.3,62.7,149.4,62.6,149.4,62.6z"/>
</g>
</svg>
