<?xml version="1.0" encoding="utf-8"?>
<!-- Generator: Adobe Illustrator 19.0.0, SVG Export Plug-In . SVG Version: 6.00 Build 0)  -->
<svg version="1.1" id="Layer_1" xmlns="http://www.w3.org/2000/svg" xmlns:xlink="http://www.w3.org/1999/xlink" x="0px" y="0px"
	 viewBox="0 0 283.5 283.5" style="enable-background:new 0 0 283.5 283.5;" xml:space="preserve">
<style type="text/css">
	.st0{fill:#F6931E;}
	.st1{fill:#BBBBBB;stroke:#231F20;stroke-width:1.2533;stroke-miterlimit:10;}
	.st2{fill:#E5E6E7;}
	.st3{fill:#00ADEE;}
</style>
<path id="XMLID_1_" class="st3" d="M251.6,19.8H31.9c-6.2,0-11.3,5-11.3,11.3v219.6c0,6.2,5,11.3,11.3,11.3h219.6
	c6.2,0,11.3-5,11.3-11.3V31.1C262.8,24.8,257.8,19.8,251.6,19.8z"/>
<path id="XMLID_5_" class="st2" d="M229.2,41.7h-175c-6.4,0-11.7,5.3-11.7,11.7v175c0,6.4,5.3,11.7,11.7,11.7h175
	c6.4,0,11.7-5.3,11.7-11.7v-175C240.9,46.9,235.7,41.7,229.2,41.7z"/>
<path id="XMLID_371_" class="st3" d="M187.1,124.5h-14.2c-5.1,0-9.2,4.2-9.2,9.2V148c0,5.1,4.2,9.2,9.2,9.2h14.2
	c5.1,0,9.2-4.2,9.2-9.2v-14.2C196.4,128.7,192.2,124.5,187.1,124.5z"/>
<path id="XMLID_29_" class="st3" d="M148.3,124.5H134c-5.1,0-9.2,4.2-9.2,9.2V148c0,5.1,4.2,9.2,9.2,9.2h14.2c5.1,0,9.2-4.2,9.2-9.2
	v-14.2C157.5,128.7,153.4,124.5,148.3,124.5z"/>
<path id="XMLID_30_" class="st3" d="M110.1,124.5H95.9c-5.1,0-9.2,4.2-9.2,9.2V148c0,5.1,4.2,9.2,9.2,9.2h14.2
	c5.1,0,9.2-4.2,9.2-9.2v-14.2C119.3,128.7,115.2,124.5,110.1,124.5z"/>
<path id="XMLID_31_" class="st3" d="M71.9,124.5H57.7c-5.1,0-9.2,4.2-9.2,9.2V148c0,5.1,4.2,9.2,9.2,9.2h14.2c5.1,0,9.2-4.2,9.2-9.2
	v-14.2C81.2,128.7,77,124.5,71.9,124.5z"/>
<path id="XMLID_33_" class="st3" d="M225.8,124.5h-14.2c-5.1,0-9.2,4.2-9.2,9.2V148c0,5.1,4.2,9.2,9.2,9.2h14.2
	c5.1,0,9.2-4.2,9.2-9.2v-14.2C235,128.7,230.8,124.5,225.8,124.5z"/>
</svg>
