<?xml version="1.0" encoding="utf-8"?>
<!-- Generator: Adobe Illustrator 19.0.0, SVG Export Plug-In . SVG Version: 6.00 Build 0)  -->
<svg version="1.1" id="Layer_1" xmlns="http://www.w3.org/2000/svg" xmlns:xlink="http://www.w3.org/1999/xlink" x="0px" y="0px"
	 viewBox="0 0 283.5 283.5" style="enable-background:new 0 0 283.5 283.5;" xml:space="preserve">
<style type="text/css">
	.st0{fill:#F6931E;}
	.st1{fill:#BBBBBB;stroke:#231F20;stroke-width:1.2533;stroke-miterlimit:10;}
	.st2{fill:#E5E6E7;}
	.st3{fill:#00ADEE;}
</style>
<path id="XMLID_1_" class="st3" d="M251.6,19.8H31.9c-6.2,0-11.3,5-11.3,11.3v219.6c0,6.2,5,11.3,11.3,11.3h219.6
	c6.2,0,11.3-5,11.3-11.3V31.1C262.8,24.8,257.8,19.8,251.6,19.8z"/>
<path id="XMLID_5_" class="st2" d="M229.2,41.7h-175c-6.4,0-11.7,5.3-11.7,11.7v175c0,6.4,5.3,11.7,11.7,11.7h175
	c6.4,0,11.7-5.3,11.7-11.7v-175C240.9,46.9,235.7,41.7,229.2,41.7z"/>
<path id="XMLID_371_" class="st3" d="M217.2,144.3h-16.7c-5.9,0-10.8,4.9-10.8,10.8v16.7c0,5.9,4.9,10.8,10.8,10.8h16.7
	c5.9,0,10.8-4.9,10.8-10.8v-16.7C228,149.1,223.1,144.3,217.2,144.3z"/>
<path id="XMLID_29_" class="st3" d="M171.7,144.3h-16.7c-5.9,0-10.8,4.9-10.8,10.8v16.7c0,5.9,4.9,10.8,10.8,10.8h16.7
	c5.9,0,10.8-4.9,10.8-10.8v-16.7C182.5,149.1,177.7,144.3,171.7,144.3z"/>
<path id="XMLID_30_" class="st3" d="M127.1,144.3h-16.7c-5.9,0-10.8,4.9-10.8,10.8v16.7c0,5.9,4.9,10.8,10.8,10.8h16.7
	c5.9,0,10.8-4.9,10.8-10.8v-16.7C137.9,149.1,133,144.3,127.1,144.3z"/>
<path id="XMLID_31_" class="st3" d="M82.4,144.3H65.8c-5.9,0-10.8,4.9-10.8,10.8v16.7c0,5.9,4.9,10.8,10.8,10.8h16.7
	c5.9,0,10.8-4.9,10.8-10.8v-16.7C93.2,149.1,88.4,144.3,82.4,144.3z"/>
<path id="XMLID_33_" class="st3" d="M217.2,99.5h-16.7c-5.9,0-10.8,4.9-10.8,10.8v16.7c0,5.9,4.9,10.8,10.8,10.8h16.7
	c5.9,0,10.8-4.9,10.8-10.8v-16.7C228,104.3,223.1,99.5,217.2,99.5z"/>
</svg>
