<?xml version="1.0" encoding="utf-8"?>
<!-- Generator: Adobe Illustrator 19.0.0, SVG Export Plug-In . SVG Version: 6.00 Build 0)  -->
<svg version="1.1" id="Layer_1" xmlns="http://www.w3.org/2000/svg" xmlns:xlink="http://www.w3.org/1999/xlink" x="0px" y="0px"
	 viewBox="0 0 283.5 283.5" style="enable-background:new 0 0 283.5 283.5;" xml:space="preserve">
<style type="text/css">
	.st0{fill:#F6931E;}
	.st1{fill:#BBBBBB;stroke:#231F20;stroke-width:1.2533;stroke-miterlimit:10;}
	.st2{fill:#00ADEE;}
	.st3{fill:#E5E6E7;}
</style>
<path id="XMLID_1_" class="st3" d="M251.6,19.8H31.9c-6.2,0-11.3,5-11.3,11.3v219.6c0,6.2,5,11.3,11.3,11.3h219.6
	c6.2,0,11.3-5,11.3-11.3V31.1C262.8,24.8,257.8,19.8,251.6,19.8z"/>
<path id="XMLID_5_" class="st2" d="M229.2,41.7h-175c-6.4,0-11.7,5.3-11.7,11.7v175c0,6.4,5.3,11.7,11.7,11.7h175
	c6.4,0,11.7-5.3,11.7-11.7v-175C240.9,46.9,235.7,41.7,229.2,41.7z"/>
<path id="XMLID_30_" class="st3" d="M107.6,95.2h18.5c6.6,0,12,5.4,12,12v18.5c0,6.6-5.4,12-12,12h-18.5c-6.6,0-12-5.4-12-12v-18.5
	C95.6,100.6,101,95.2,107.6,95.2z"/>
<path id="XMLID_31_" class="st3" d="M157.2,95.2h18.5c6.6,0,12,5.4,12,12v18.5c0,6.6-5.4,12-12,12h-18.5c-6.6,0-12-5.4-12-12v-18.5
	C145.2,100.6,150.6,95.2,157.2,95.2z"/>
<path id="XMLID_34_" class="st3" d="M108.4,145.7h18.5c6.6,0,12,5.4,12,12v18.5c0,6.6-5.4,12-12,12h-18.5c-6.6,0-12-5.4-12-12v-18.5
	C96.3,151.1,101.8,145.7,108.4,145.7z"/>
<path id="XMLID_35_" class="st3" d="M157.2,145.7h18.5c6.6,0,12,5.4,12,12v18.5c0,6.6-5.4,12-12,12h-18.5c-6.6,0-12-5.4-12-12v-18.5
	C145.2,151.1,150.6,145.7,157.2,145.7z"/>
</svg>
