<?xml version="1.0" encoding="utf-8"?>
<!-- Generator: Adobe Illustrator 19.0.0, SVG Export Plug-In . SVG Version: 6.00 Build 0)  -->
<svg version="1.1" id="Layer_1" xmlns="http://www.w3.org/2000/svg" xmlns:xlink="http://www.w3.org/1999/xlink" x="0px" y="0px"
	 viewBox="0 0 283.5 425.2" style="enable-background:new 0 0 283.5 425.2;" xml:space="preserve">
<style type="text/css">
	.st0{fill:#F6931E;}
	.st1{fill:#BBBBBB;stroke:#231F20;stroke-width:1.2533;stroke-miterlimit:10;}
	.st2{fill:#E5E6E7;}
	.st3{fill:#231F20;}
	.st4{fill:none;stroke:#231F20;stroke-miterlimit:10;}
	.st5{fill:#F6931E;stroke:#F6931E;stroke-miterlimit:10;}
	.st6{fill:#F6931E;stroke:#F6931E;stroke-miterlimit:10;}
</style>
<path id="XMLID_1_" class="st0" d="M239.1,58.8H39c-7.6,0-13.7,6.1-13.7,13.7v280c0,7.6,6.1,13.7,13.7,13.7h204.7
	c7.6,0,13.7-6.1,13.7-13.7V72.5c0-7.6-6.1-13.7-13.7-13.7z"/>
<path id="XMLID_5_" class="st2" d="M229.2,80.5h-175c-6.4,0-11.7,5.3-11.7,11.7v240c0,6.4,5.3,11.7,11.7,11.7h175
	c6.4,0,11.7-5.3,11.7-11.7v-240c0-6.4-5.3-11.7-11.7-11.7z"/>
<!-- Cuadrado inferior -->
<path id="XMLID_28_" class="st3" d="M82.9,241h18.5c6.6,0,12,5.4,12,12v18.5c0,6.6-5.4,12-12,12H82.9c-6.6,0-12-5.4-12-12V253
	C70.9,246.4,76.3,241,82.9,241z"/>
<!-- Cuadrado intermedio -->
<path id="XMLID_30_" class="st3" d="M132.5,190.5H151c6.6,0,12,5.4,12,12V221c0,6.6-5.4,12-12,12h-18.5c-6.6,0-12-5.4-12-12v-18.5
	C120.5,195.9,125.9,190.5,132.5,190.5z"/>
<!-- Cuadrado superior  -->
<path id="XMLID_32_" class="st3" d="M182.1,141.7h18.5c6.6,0,12,5.4,12,12v18.5c0,6.6-5.4,12-12,12h-18.5c-6.6,0-12-5.4-12-12v-18.5
	C170.1,147.1,175.5,141.7,182.1,141.7z"/>
<circle id="XMLID_405_" class="st5" cx="92.1" cy="262.2" r="13.4"/>
<circle id="XMLID_404_" class="st6" cx="92.1" cy="262.2" r="9"/>
<circle id="XMLID_407_" class="st5" cx="191.3" cy="163" r="13.4"/>
<circle id="XMLID_406_" class="st6" cx="191.3" cy="163" r="9"/>
<rect id="XMLID_6_" x="70.9" y="209.7" transform="matrix(0.7071 -0.7071 0.7071 0.7071 -108.2168 162.2419)" class="st0" width="141.7" height="4.1"/>
</svg>
